<?xml version="1.0" encoding="utf-8"?>
<!-- Generator: Adobe Illustrator 19.2.1, SVG Export Plug-In . SVG Version: 6.00 Build 0)  -->
<svg version="1.1" id="layer" xmlns="http://www.w3.org/2000/svg" xmlns:xlink="http://www.w3.org/1999/xlink" x="0px" y="0px"
	 viewBox="0 0 652 652" style="enable-background:new 0 0 652 652;" xml:space="preserve">
<style type="text/css">
	.st0{fill:#3952A8;}
</style>
<g>
	<path class="st0" d="M87,393.2c-0.1,0-0.2,0.1-0.2,0.2c0,0.1,0.1,0.2,0.2,0.2c0.1,0,0.2-0.1,0.2-0.2
		C87.2,393.3,87.1,393.2,87,393.2"/>
	<path class="st0" d="M80.6,391c-0.3,0-0.5,0.2-0.5,0.5c0,0.3,0.2,0.5,0.5,0.5c0.3,0,0.5-0.2,0.5-0.5C81.1,391.2,80.9,391,80.6,391"
		/>
	<path class="st0" d="M74.4,388.1c-0.4,0-0.7,0.3-0.7,0.7c0,0.4,0.3,0.7,0.7,0.7c0.4,0,0.7-0.3,0.7-0.7
		C75.1,388.4,74.8,388.1,74.4,388.1"/>
	<path class="st0" d="M68.6,384.6c-0.5,0-0.9,0.4-0.9,0.9c0,0.5,0.4,0.9,0.9,0.9c0.5,0,0.9-0.4,0.9-0.9
		C69.5,385,69.1,384.6,68.6,384.6"/>
	<path class="st0" d="M63.1,380.4c-0.6,0-1.2,0.5-1.2,1.2c0,0.6,0.5,1.2,1.2,1.2c0.6,0,1.2-0.5,1.2-1.2
		C64.3,381,63.8,380.4,63.1,380.4"/>
	<path class="st0" d="M58.1,375.8c-0.8,0-1.4,0.6-1.4,1.4c0,0.8,0.6,1.4,1.4,1.4c0.8,0,1.4-0.6,1.4-1.4
		C59.5,376.4,58.9,375.8,58.1,375.8"/>
	<path class="st0" d="M53.5,370.6c-0.9,0-1.6,0.7-1.6,1.6c0,0.9,0.7,1.6,1.6,1.6c0.9,0,1.6-0.7,1.6-1.6
		C55.2,371.3,54.4,370.6,53.5,370.6"/>
	<path class="st0" d="M49.6,364.9c-1,0-1.9,0.8-1.9,1.9c0,1,0.8,1.9,1.9,1.9c1,0,1.9-0.8,1.9-1.9C51.4,365.8,50.6,364.9,49.6,364.9"
		/>
	<path class="st0" d="M48.4,360.9c0-1.1-0.9-2.1-2.1-2.1s-2.1,0.9-2.1,2.1c0,1.1,0.9,2.1,2.1,2.1S48.4,362.1,48.4,360.9"/>
	<path class="st0" d="M46.1,354.7c0-1.3-1-2.3-2.3-2.3c-1.3,0-2.3,1-2.3,2.3c0,1.3,1,2.3,2.3,2.3C45.1,357,46.1,356,46.1,354.7"/>
	<path class="st0" d="M44.7,348.2c0-1.4-1.1-2.5-2.5-2.5c-1.4,0-2.5,1.1-2.5,2.5c0,1.4,1.1,2.5,2.5,2.5
		C43.6,350.7,44.7,349.6,44.7,348.2"/>
	<path class="st0" d="M44.2,341.5c0-1.5-1.2-2.8-2.8-2.8c-1.5,0-2.8,1.2-2.8,2.8c0,1.5,1.2,2.8,2.8,2.8
		C43,344.3,44.2,343,44.2,341.5"/>
	<path class="st0" d="M41.6,337.8c1.7,0,3-1.3,3-3c0-1.7-1.3-3-3-3c-1.7,0-3,1.3-3,3C38.6,336.4,39.9,337.8,41.6,337.8"/>
	<path class="st0" d="M39.3,328.1c0,1.8,1.4,3.2,3.2,3.2c1.8,0,3.2-1.4,3.2-3.2c0-1.8-1.4-3.2-3.2-3.2
		C40.8,324.9,39.3,326.3,39.3,328.1"/>
	<path class="st0" d="M136.5,377.7c-0.1,0-0.2,0.1-0.2,0.2c0,0.1,0.1,0.2,0.2,0.2c0.1,0,0.2-0.1,0.2-0.2
		C136.7,377.8,136.6,377.7,136.5,377.7"/>
	<path class="st0" d="M130.6,380.6c-0.2,0-0.4,0.2-0.4,0.4c0,0.2,0.2,0.4,0.4,0.4c0.2,0,0.4-0.2,0.4-0.4
		C131,380.8,130.8,380.6,130.6,380.6"/>
	<path class="st0" d="M124.3,382.9c-0.3,0-0.6,0.3-0.6,0.6c0,0.3,0.3,0.6,0.6,0.6c0.3,0,0.6-0.3,0.6-0.6
		C124.9,383.2,124.7,382.9,124.3,382.9"/>
	<path class="st0" d="M117.9,384.5c-0.5,0-0.8,0.4-0.8,0.8c0,0.4,0.4,0.8,0.8,0.8c0.4,0,0.8-0.4,0.8-0.8
		C118.7,384.9,118.3,384.5,117.9,384.5"/>
	<path class="st0" d="M111.2,385.4c-0.6,0-1,0.5-1,1c0,0.6,0.5,1,1,1c0.6,0,1-0.5,1-1C112.3,385.9,111.8,385.4,111.2,385.4"/>
	<path class="st0" d="M104.5,385.7c-0.7,0-1.2,0.5-1.2,1.2c0,0.7,0.5,1.2,1.2,1.2c0.7,0,1.2-0.6,1.2-1.2
		C105.8,386.2,105.2,385.7,104.5,385.7"/>
	<path class="st0" d="M97.8,385.2c-0.8,0-1.4,0.6-1.4,1.4c0,0.8,0.6,1.4,1.4,1.4c0.8,0,1.4-0.6,1.4-1.4
		C99.3,385.8,98.6,385.2,97.8,385.2"/>
	<path class="st0" d="M91.2,384c-0.9,0-1.6,0.7-1.6,1.6c0,0.9,0.7,1.6,1.6,1.6c0.9,0,1.6-0.7,1.6-1.6C92.8,384.7,92.1,384,91.2,384"
		/>
	<path class="st0" d="M84.7,381.9c-1,0-1.8,0.8-1.8,1.8c0,1,0.8,1.8,1.8,1.8c1,0,1.8-0.8,1.8-1.8C86.6,382.7,85.7,381.9,84.7,381.9"
		/>
	<path class="st0" d="M78.6,379c-1.1,0-2,0.9-2,2c0,1.1,0.9,2,2,2c1.1,0,2-0.9,2-2C80.6,380,79.7,379,78.6,379"/>
	<path class="st0" d="M75.1,377.6c0-1.2-1-2.2-2.2-2.2c-1.2,0-2.3,1-2.3,2.2c0,1.2,1,2.2,2.3,2.2C74.1,379.9,75.1,378.9,75.1,377.6"
		/>
	<path class="st0" d="M67.6,371c-1.4,0-2.5,1.1-2.5,2.5s1.1,2.5,2.5,2.5c1.3,0,2.5-1.1,2.5-2.5S68.9,371,67.6,371"/>
	<path class="st0" d="M62.9,365.9c-1.5,0-2.7,1.2-2.7,2.7c0,1.5,1.2,2.7,2.7,2.7c1.5,0,2.7-1.2,2.7-2.7
		C65.6,367.1,64.4,365.9,62.9,365.9"/>
	<path class="st0" d="M58.9,366.1c1.6,0,2.9-1.3,2.9-2.9c0-1.6-1.3-2.9-2.9-2.9c-1.6,0-2.9,1.3-2.9,2.9
		C56.1,364.8,57.3,366.1,58.9,366.1"/>
	<path class="st0" d="M58.7,357.3c0-1.7-1.4-3.1-3.1-3.1c-1.7,0-3.1,1.4-3.1,3.1c0,1.7,1.4,3.1,3.1,3.1
		C57.4,360.4,58.7,359,58.7,357.3"/>
	<path class="st0" d="M160.6,331.8c-0.1,0-0.2,0.1-0.2,0.2c0,0.1,0.1,0.2,0.2,0.2c0.1,0,0.2-0.1,0.2-0.2
		C160.7,331.9,160.7,331.8,160.6,331.8"/>
	<path class="st0" d="M158.6,338c-0.2,0-0.4,0.2-0.4,0.4s0.2,0.4,0.4,0.4c0.2,0,0.4-0.2,0.4-0.4S158.8,338,158.6,338"/>
	<path class="st0" d="M155.9,344c-0.3,0-0.5,0.2-0.5,0.5c0,0.3,0.2,0.6,0.5,0.6c0.3,0,0.6-0.2,0.6-0.6
		C156.4,344.3,156.2,344,155.9,344"/>
	<path class="st0" d="M152.6,349.7c-0.4,0-0.7,0.3-0.7,0.7c0,0.4,0.3,0.7,0.7,0.7c0.4,0,0.7-0.3,0.7-0.7
		C153.3,350,153,349.7,152.6,349.7"/>
	<path class="st0" d="M148.7,355c-0.5,0-0.9,0.4-0.9,0.9c0,0.5,0.4,0.9,0.9,0.9c0.5,0,0.9-0.4,0.9-0.9
		C149.6,355.4,149.2,355,148.7,355"/>
	<path class="st0" d="M144.3,359.8c-0.6,0-1.1,0.5-1.1,1.1c0,0.6,0.5,1.1,1.1,1.1s1.1-0.5,1.1-1.1
		C145.4,360.3,144.9,359.8,144.3,359.8"/>
	<path class="st0" d="M139.3,364.2c-0.7,0-1.3,0.6-1.3,1.3c0,0.7,0.6,1.3,1.3,1.3c0.7,0,1.3-0.6,1.3-1.3
		C140.6,364.8,140,364.2,139.3,364.2"/>
	<path class="st0" d="M133.9,368c-0.8,0-1.5,0.7-1.5,1.5s0.7,1.5,1.5,1.5c0.8,0,1.5-0.7,1.5-1.5S134.7,368,133.9,368"/>
	<path class="st0" d="M128.1,371.1c-0.9,0-1.7,0.7-1.7,1.6c0,0.9,0.7,1.7,1.7,1.7c0.9,0,1.6-0.7,1.6-1.7
		C129.7,371.8,129,371.1,128.1,371.1"/>
	<path class="st0" d="M121.8,373.3c-1,0-1.8,0.8-1.8,1.8c0,1,0.8,1.8,1.8,1.8c1,0,1.8-0.8,1.8-1.8
		C123.6,374.2,122.8,373.3,121.8,373.3"/>
	<path class="st0" d="M115.3,374.8c-1.1,0-2,0.9-2,2c0,1.1,0.9,2,2,2c1.1,0,2-0.9,2-2C117.3,375.7,116.4,374.8,115.3,374.8"/>
	<path class="st0" d="M108.6,375.4c-1.2,0-2.2,1-2.2,2.2s1,2.2,2.2,2.2c1.2,0,2.2-1,2.2-2.2S109.8,375.4,108.6,375.4"/>
	<path class="st0" d="M104.3,377.4c0-1.3-1.1-2.4-2.4-2.4c-1.3,0-2.4,1.1-2.4,2.4c0,1.3,1.1,2.4,2.4,2.4
		C103.2,379.8,104.3,378.7,104.3,377.4"/>
	<path class="st0" d="M97.8,376.4c0-1.4-1.1-2.6-2.6-2.6c-1.4,0-2.6,1.1-2.6,2.6c0,1.4,1.1,2.6,2.6,2.6
		C96.7,379,97.8,377.9,97.8,376.4"/>
	<path class="st0" d="M91.6,374.6c0-1.5-1.2-2.7-2.8-2.7c-1.5,0-2.7,1.2-2.7,2.7c0,1.5,1.2,2.8,2.7,2.8
		C90.3,377.3,91.6,376.1,91.6,374.6"/>
	<path class="st0" d="M85.6,371.9c0-1.6-1.3-2.9-2.9-2.9c-1.6,0-2.9,1.3-2.9,2.9c0,1.6,1.3,2.9,2.9,2.9
		C84.3,374.8,85.6,373.5,85.6,371.9"/>
	<path class="st0" d="M145.1,282.7c0.1,0,0.2-0.1,0.2-0.2c0-0.1-0.1-0.2-0.2-0.2c-0.1,0-0.2,0.1-0.2,0.2
		C144.9,282.6,145,282.7,145.1,282.7"/>
	<path class="st0" d="M148.2,288.8c0.2,0,0.4-0.2,0.4-0.4c0-0.2-0.2-0.4-0.4-0.4c-0.2,0-0.4,0.2-0.4,0.4
		C147.8,288.6,148,288.8,148.2,288.8"/>
	<path class="st0" d="M150.7,295.2c0.3,0,0.5-0.2,0.5-0.5c0-0.3-0.2-0.5-0.5-0.5c-0.3,0-0.5,0.2-0.5,0.5
		C150.1,295,150.4,295.2,150.7,295.2"/>
	<path class="st0" d="M152.5,301.9c0.4,0,0.7-0.3,0.7-0.7c0-0.4-0.3-0.7-0.7-0.7c-0.4,0-0.7,0.3-0.7,0.7
		C151.7,301.6,152.1,301.9,152.5,301.9"/>
	<path class="st0" d="M152.7,307.8c0,0.5,0.4,0.9,0.9,0.9c0.5,0,0.9-0.4,0.9-0.9c0-0.5-0.4-0.9-0.9-0.9
		C153.1,306.8,152.7,307.3,152.7,307.8"/>
	<path class="st0" d="M154,313.4c-0.6,0-1.1,0.5-1.1,1.1c0,0.6,0.5,1.1,1.1,1.1c0.6,0,1.1-0.5,1.1-1.1
		C155.1,313.9,154.6,313.4,154,313.4"/>
	<path class="st0" d="M153.7,319.9c-0.7,0-1.3,0.6-1.3,1.3c0,0.7,0.6,1.3,1.3,1.3c0.7,0,1.3-0.6,1.3-1.3
		C155,320.5,154.4,319.9,153.7,319.9"/>
	<path class="st0" d="M152.7,326.4c-0.8,0-1.5,0.7-1.5,1.5c0,0.8,0.7,1.5,1.5,1.5c0.8,0,1.5-0.6,1.5-1.5
		C154.2,327,153.5,326.4,152.7,326.4"/>
	<path class="st0" d="M152.5,334.3c0-0.9-0.7-1.6-1.6-1.6c-0.9,0-1.7,0.7-1.7,1.6c0,0.9,0.7,1.6,1.7,1.6
		C151.8,335.9,152.5,335.2,152.5,334.3"/>
	<path class="st0" d="M148.2,338.6c-1,0-1.8,0.8-1.8,1.8c0,1,0.8,1.8,1.8,1.8c1,0,1.8-0.8,1.8-1.8
		C150,339.4,149.2,338.6,148.2,338.6"/>
	<path class="st0" d="M144.8,344.2c-1.1,0-2,0.9-2,2c0,1.1,0.9,2,2,2c1.1,0,2-0.9,2-2C146.8,345.1,145.9,344.2,144.8,344.2"/>
	<path class="st0" d="M140.6,349.2c-1.2,0-2.2,1-2.2,2.2c0,1.2,1,2.2,2.2,2.2c1.2,0,2.2-1,2.2-2.2
		C142.8,350.2,141.8,349.2,140.6,349.2"/>
	<path class="st0" d="M135.7,353.7c-1.3,0-2.4,1.1-2.4,2.4c0,1.3,1.1,2.4,2.4,2.4c1.3,0,2.4-1.1,2.4-2.4
		C138.1,354.8,137,353.7,135.7,353.7"/>
	<path class="st0" d="M130.3,357.5c-1.4,0-2.6,1.1-2.6,2.6c0,1.4,1.1,2.6,2.6,2.6c1.4,0,2.6-1.1,2.6-2.6
		C132.9,358.7,131.7,357.5,130.3,357.5"/>
	<path class="st0" d="M124.5,360.6c-1.5,0-2.7,1.2-2.7,2.8c0,1.5,1.2,2.7,2.7,2.7c1.5,0,2.7-1.2,2.7-2.7
		C127.2,361.8,126,360.6,124.5,360.6"/>
	<path class="st0" d="M118.2,362.9c-1.6,0-2.9,1.3-2.9,2.9c0,1.6,1.3,2.9,2.9,2.9c1.6,0,2.9-1.3,2.9-2.9
		C121.1,364.2,119.8,362.9,118.2,362.9"/>
	<path class="st0" d="M99.1,258.6c0.1,0,0.2-0.1,0.2-0.2s-0.1-0.2-0.2-0.2c-0.1,0-0.2,0.1-0.2,0.2S99,258.6,99.1,258.6"/>
	<path class="st0" d="M105.5,260.8c0.2,0,0.4-0.2,0.4-0.4c0-0.2-0.2-0.4-0.4-0.4c-0.2,0-0.4,0.2-0.4,0.4
		C105.2,260.7,105.3,260.8,105.5,260.8"/>
	<path class="st0" d="M111.7,263.7c0.3,0,0.5-0.2,0.5-0.5c0-0.3-0.2-0.6-0.5-0.6c-0.3,0-0.6,0.2-0.6,0.6
		C111.1,263.4,111.4,263.7,111.7,263.7"/>
	<path class="st0" d="M117.5,267.1c0.4,0,0.7-0.3,0.7-0.7c0-0.4-0.3-0.7-0.7-0.7c-0.4,0-0.7,0.3-0.7,0.7
		C116.8,266.8,117.1,267.1,117.5,267.1"/>
	<path class="st0" d="M123,271.2c0.5,0,0.9-0.4,0.9-0.9c0-0.5-0.4-0.9-0.9-0.9c-0.5,0-0.9,0.4-0.9,0.9
		C122.1,270.8,122.5,271.2,123,271.2"/>
	<path class="st0" d="M128.1,275.8c0.6,0,1.1-0.5,1.1-1.1c0-0.6-0.5-1.1-1.1-1.1s-1.1,0.5-1.1,1.1
		C127,275.3,127.4,275.8,128.1,275.8"/>
	<path class="st0" d="M132.6,281c0.7,0,1.3-0.6,1.3-1.3c0-0.7-0.6-1.3-1.3-1.3c-0.7,0-1.3,0.6-1.3,1.3
		C131.3,280.4,131.9,281,132.6,281"/>
	<path class="st0" d="M136.6,286.5c0.8,0,1.5-0.7,1.5-1.5s-0.7-1.5-1.5-1.5c-0.8,0-1.5,0.7-1.5,1.5S135.8,286.5,136.6,286.5"/>
	<path class="st0" d="M139.8,292.6c0.9,0,1.6-0.7,1.6-1.6c0-0.9-0.7-1.6-1.6-1.6c-0.9,0-1.7,0.7-1.7,1.6
		C138.2,291.9,138.9,292.6,139.8,292.6"/>
	<path class="st0" d="M140.5,297.2c0,1,0.8,1.8,1.8,1.8c1,0,1.8-0.8,1.8-1.8c0-1-0.8-1.8-1.8-1.8
		C141.3,295.4,140.5,296.2,140.5,297.2"/>
	<path class="st0" d="M141.9,303.7c0,1.1,0.9,2,2,2c1.1,0,2-0.9,2-2c0-1.1-0.9-2-2-2C142.8,301.7,141.9,302.6,141.9,303.7"/>
	<path class="st0" d="M142.5,310.4c0,1.2,1,2.2,2.2,2.2c1.2,0,2.2-1,2.2-2.2c0-1.2-1-2.2-2.2-2.2
		C143.5,308.2,142.5,309.2,142.5,310.4"/>
	<path class="st0" d="M146.9,317.1c0-1.3-1.1-2.4-2.4-2.4c-1.3,0-2.4,1.1-2.4,2.4c0,1.3,1.1,2.4,2.4,2.4
		C145.9,319.5,146.9,318.4,146.9,317.1"/>
	<path class="st0" d="M146.1,323.7c0-1.4-1.1-2.6-2.6-2.6c-1.4,0-2.6,1.1-2.6,2.6c0,1.4,1.2,2.6,2.6,2.6
		C145,326.3,146.1,325.1,146.1,323.7"/>
	<path class="st0" d="M144.5,330.2c0-1.5-1.2-2.8-2.7-2.8c-1.5,0-2.7,1.2-2.7,2.8c0,1.5,1.2,2.7,2.7,2.7
		C143.2,332.9,144.5,331.7,144.5,330.2"/>
	<path class="st0" d="M139,333.4c-1.6,0-2.9,1.3-2.9,2.9c0,1.6,1.3,2.9,2.9,2.9c1.6,0,2.9-1.3,2.9-2.9
		C142,334.7,140.7,333.4,139,333.4"/>
	<path class="st0" d="M49.6,274.1c0.1,0,0.2-0.1,0.2-0.2s-0.1-0.2-0.2-0.2c-0.1,0-0.2,0.1-0.2,0.2S49.5,274.1,49.6,274.1"/>
	<path class="st0" d="M55.6,271.2c0.2,0,0.4-0.2,0.4-0.4s-0.2-0.4-0.4-0.4c-0.2,0-0.4,0.2-0.4,0.4S55.4,271.2,55.6,271.2"/>
	<path class="st0" d="M61.8,268.9c0.3,0,0.6-0.2,0.6-0.5c0-0.3-0.2-0.6-0.6-0.6c-0.3,0-0.5,0.3-0.5,0.6
		C61.3,268.6,61.5,268.9,61.8,268.9"/>
	<path class="st0" d="M68.3,267.3c0.4,0,0.7-0.3,0.7-0.7c0-0.4-0.3-0.7-0.7-0.7c-0.4,0-0.7,0.3-0.7,0.7
		C67.5,266.9,67.9,267.3,68.3,267.3"/>
	<path class="st0" d="M74.9,266.3c0.5,0,0.9-0.4,0.9-0.9c0-0.5-0.4-0.9-0.9-0.9c-0.5,0-0.9,0.4-0.9,0.9
		C74,265.9,74.4,266.3,74.9,266.3"/>
	<path class="st0" d="M81.6,266.1c0.6,0,1.1-0.5,1.1-1.1c0-0.6-0.5-1.1-1.1-1.1s-1.1,0.5-1.1,1.1C80.5,265.6,81,266.1,81.6,266.1"/>
	<path class="st0" d="M88.3,266.6c0.7,0,1.3-0.6,1.3-1.3c0-0.7-0.6-1.3-1.3-1.3c-0.7,0-1.3,0.6-1.3,1.3
		C87,266,87.6,266.6,88.3,266.6"/>
	<path class="st0" d="M94.9,267.7c0.8,0,1.5-0.6,1.5-1.5c0-0.8-0.7-1.5-1.5-1.5c-0.8,0-1.5,0.7-1.5,1.5
		C93.5,267.1,94.1,267.7,94.9,267.7"/>
	<path class="st0" d="M101.4,269.8c0.9,0,1.7-0.7,1.7-1.6c0-0.9-0.7-1.6-1.7-1.6c-0.9,0-1.6,0.7-1.6,1.6
		C99.8,269,100.5,269.8,101.4,269.8"/>
	<path class="st0" d="M107.6,272.6c1,0,1.8-0.8,1.8-1.8c0-1-0.8-1.8-1.8-1.8c-1,0-1.8,0.8-1.8,1.8
		C105.7,271.8,106.6,272.6,107.6,272.6"/>
	<path class="st0" d="M111.3,274.2c0,1.1,0.9,2,2,2c1.1,0,2-0.9,2-2c0-1.1-0.9-2-2-2C112.2,272.2,111.3,273.1,111.3,274.2"/>
	<path class="st0" d="M118.6,280.6c1.2,0,2.2-1,2.2-2.2c0-1.2-1-2.2-2.2-2.2c-1.2,0-2.2,1-2.2,2.2
		C116.4,279.7,117.4,280.6,118.6,280.6"/>
	<path class="st0" d="M123.2,285.7c1.3,0,2.4-1.1,2.4-2.4c0-1.3-1.1-2.4-2.4-2.4c-1.3,0-2.4,1.1-2.4,2.4
		C120.8,284.6,121.9,285.7,123.2,285.7"/>
	<path class="st0" d="M127.2,286.1c-1.4,0-2.6,1.1-2.6,2.6c0,1.4,1.1,2.6,2.6,2.6c1.4,0,2.6-1.1,2.6-2.6
		C129.8,287.3,128.6,286.1,127.2,286.1"/>
	<path class="st0" d="M127.7,294.5c0,1.5,1.2,2.7,2.7,2.7c1.5,0,2.7-1.2,2.7-2.7c0-1.5-1.2-2.7-2.7-2.7
		C129,291.8,127.7,293,127.7,294.5"/>
	<path class="st0" d="M130,300.8c0,1.6,1.3,2.9,2.9,2.9c1.6,0,2.9-1.3,2.9-2.9c0-1.6-1.3-2.9-2.9-2.9
		C131.3,297.9,130,299.2,130,300.8"/>
	<path class="st0" d="M134.5,304.2c-1.7,0-3.1,1.4-3.1,3.1c0,1.7,1.4,3.1,3.1,3.1c1.7,0,3.1-1.4,3.1-3.1
		C137.7,305.6,136.3,304.2,134.5,304.2"/>
	<path class="st0" d="M25.6,319.5c-0.2,0-0.3,0.2-0.3,0.3c0,0.2,0.2,0.3,0.3,0.3c0.2,0,0.3-0.2,0.3-0.3
		C25.9,319.7,25.8,319.5,25.6,319.5"/>
	<path class="st0" d="M27.6,312.8c-0.4,0-0.7,0.3-0.7,0.7c0,0.4,0.3,0.7,0.7,0.7c0.4,0,0.7-0.3,0.7-0.7
		C28.3,313.1,28,312.8,27.6,312.8"/>
	<path class="st0" d="M31.3,307.3c0-0.6-0.5-1-1-1c-0.6,0-1,0.5-1,1c0,0.6,0.5,1,1,1C30.8,308.3,31.3,307.9,31.3,307.3"/>
	<path class="st0" d="M33.5,302.8c0.8,0,1.4-0.6,1.4-1.4c0-0.8-0.6-1.4-1.4-1.4c-0.8,0-1.4,0.6-1.4,1.4
		C32.1,302.2,32.8,302.8,33.5,302.8"/>
	<path class="st0" d="M37.4,297.7c1,0,1.7-0.8,1.7-1.7s-0.8-1.7-1.7-1.7c-1,0-1.7,0.8-1.7,1.7S36.5,297.7,37.4,297.7"/>
	<path class="st0" d="M41.9,293c1.1,0,2.1-0.9,2.1-2.1c0-1.1-0.9-2.1-2.1-2.1c-1.1,0-2.1,0.9-2.1,2.1C39.8,292.1,40.7,293,41.9,293"
		/>
	<path class="st0" d="M46.8,288.8c1.3,0,2.4-1.1,2.4-2.4c0-1.3-1.1-2.4-2.4-2.4c-1.3,0-2.4,1.1-2.4,2.4
		C44.4,287.7,45.5,288.8,46.8,288.8"/>
	<path class="st0" d="M52.2,285.2c1.5,0,2.8-1.2,2.8-2.8c0-1.5-1.2-2.8-2.8-2.8c-1.5,0-2.8,1.2-2.8,2.8
		C49.4,283.9,50.7,285.2,52.2,285.2"/>
	<path class="st0" d="M58,282.2c1.7,0,3.1-1.4,3.1-3.1c0-1.7-1.4-3.1-3.1-3.1c-1.7,0-3.1,1.4-3.1,3.1
		C54.9,280.8,56.3,282.2,58,282.2"/>
	<path class="st0" d="M64.3,280c1.7,0,3.1-1.3,3.4-2.9c0.7,1,1.8,1.6,3.1,1.6c1.5,0,2.7-0.8,3.4-2.1c0.8,1,2,1.7,3.3,1.7
		c1.2,0,2.3-0.5,3.1-1.4c0.8,1.1,2.1,1.9,3.7,1.9c0.9,0,1.8-0.3,2.6-0.8c0.2,0.3,0.4,0.5,0.6,0.7c-1.1,0.1-2.2,0.6-2.9,1.4
		c-0.9-0.8-2-1.3-3.2-1.3c-1.6,0-3,0.8-3.9,2c-0.8-0.6-1.7-1-2.8-1c-1.8,0-3.4,1.1-4.1,2.6c-0.7-0.5-1.5-0.7-2.4-0.7
		c-2,0-3.7,1.4-4.2,3.3c-0.6-0.4-1.3-0.6-2.1-0.6c-2.2,0-4,1.8-4,4v0c-0.6-0.3-1.2-0.5-1.9-0.5c-2.1,0-3.7,1.7-3.7,3.7
		c0,0.4,0.1,0.7,0.2,1c-0.5-0.3-1.1-0.5-1.8-0.5c-1.9,0-3.5,1.6-3.5,3.5c0,1.9,1.6,3.5,3.5,3.5c1.9,0,3.5-1.6,3.5-3.5
		c0-0.3,0-0.6-0.1-0.9c0.6,0.4,1.3,0.6,2,0.6c2,0,3.7-1.6,3.7-3.6c0.6,0.4,1.4,0.6,2.1,0.6c0.1,0,0.1,0,0.2,0
		c-0.8,0.8-1.4,1.8-1.5,3c-0.3,0-0.5-0.1-0.8-0.1c-2.4,0-4.4,2-4.4,4.4c0,0.2,0,0.3,0,0.5c-0.2,0-0.3,0-0.5,0
		c-2.3,0-4.2,1.9-4.2,4.2c0,0.5,0.1,0.9,0.2,1.3c-0.1,0-0.2,0-0.2,0c-2.2,0-3.9,1.8-3.9,3.9c0,0.8,0.2,1.5,0.6,2.1c0,0-0.1,0-0.1,0
		c-2,0-3.7,1.7-3.7,3.7c0,1.1,0.5,2,1.2,2.7c-0.1,0-0.1,0-0.2,0c-1.9,0-3.5,1.6-3.5,3.5s1.6,3.5,3.5,3.5s3.5-1.5,3.5-3.5
		c0-1-0.4-1.8-1-2.5c0.1,0,0.2,0,0.2,0c1.1,0,2-0.5,2.7-1.2c0,0,0,0.1,0,0.1c0,1,0.3,1.8,0.8,2.5c-1.6,0.6-2.7,2.1-2.7,3.8
		c0,1.2,0.6,2.3,1.4,3.1c-1.3,0.6-2.3,2-2.3,3.5c0,1.5,0.8,2.8,2.1,3.4c-1.2,0.6-2,1.8-2,3.3c0,1.7,1.2,3.2,2.9,3.6
		c-1.1,0.6-1.9,1.7-1.9,3.1c0,1.9,1.6,3.5,3.5,3.5c0.2,0,0.4,0,0.6-0.1c-1.3,0.4-2.3,1.6-2.3,3.1c0,1.8,1.5,3.3,3.3,3.3
		c1.8,0,3.3-1.5,3.3-3.3c0-1.8-1.5-3.3-3.3-3.3c-0.2,0-0.4,0-0.6,0.1c1.4-0.4,2.5-1.7,2.5-3.3c0-0.1,0-0.2,0-0.2
		c0.5,0.6,1.2,1,2.1,1.2c-0.6,0.7-0.9,1.5-0.9,2.5c0,2.1,1.7,3.8,3.9,3.8c0,0,0.1,0,0.1,0c-0.4,0.6-0.7,1.3-0.7,2.1
		c0,2,1.6,3.7,3.7,3.7c0.4,0,0.7-0.1,1.1-0.2c-0.4,0.6-0.6,1.2-0.6,1.9c0,1.9,1.6,3.5,3.5,3.5c0.8,0,1.6-0.3,2.2-0.8
		c-0.5,0.6-0.8,1.3-0.8,2.1c0,1.8,1.5,3.3,3.3,3.3c1.8,0,3.3-1.5,3.3-3.3c0-0.9-0.4-1.7-0.9-2.3c0.4,0,0.9-0.1,1.3-0.2v0
		c0,1.6,0.9,2.9,2.2,3.6c-0.2,0-0.4-0.1-0.6-0.1c-1.7,0-3.1,1.4-3.1,3.1c0,1.7,1.4,3.1,3.1,3.1c1.7,0,3.1-1.4,3.1-3.1
		c0-1.2-0.7-2.2-1.6-2.7c0.3,0.1,0.6,0.1,1,0.1c0.8,0,1.5-0.2,2.1-0.6c0.2,2,1.8,3.5,3.8,3.5c1.1,0,2.1-0.5,2.8-1.2
		c0.3,1.7,1.8,3.1,3.6,3.1c1.4,0,2.6-0.8,3.2-1.9c0.3,1.6,1.7,2.8,3.4,2.8c1.8,0,3.3-1.4,3.4-3.1c0.1,1.7,1.5,3.1,3.3,3.1
		c1.8,0,3.3-1.5,3.3-3.3c0-1.8-1.4-3.2-3.2-3.3c0.3-0.3,0.5-0.7,0.7-1.1c0.7,0.8,1.8,1.2,2.9,1.2c0.4,0,0.8-0.1,1.2-0.2
		c-0.8,0.6-1.4,1.5-1.4,2.6c0,1.7,1.4,3.1,3.1,3.1c1.7,0,3.1-1.4,3.1-3.1c0-1.7-1.4-3.1-3.1-3.1c-0.3,0-0.6,0.1-0.9,0.1
		c0.9-0.6,1.6-1.5,1.8-2.5c0.7,0.6,1.5,0.9,2.5,0.9c2.1,0,3.9-1.7,3.9-3.8c0,0,0-0.1,0-0.1c0.6,0.4,1.3,0.7,2.1,0.7
		c2,0,3.7-1.6,3.7-3.7c0-0.4,0-0.7-0.2-1.1c0.6,0.4,1.2,0.6,1.9,0.6c1.9,0,3.5-1.6,3.5-3.5c0-0.8-0.3-1.6-0.8-2.2
		c0.6,0.5,1.3,0.8,2.1,0.8c1.8,0,3.3-1.5,3.3-3.3c0-1.8-1.5-3.3-3.3-3.3c-0.9,0-1.7,0.3-2.3,0.9c0-0.4-0.1-0.9-0.2-1.3h0
		c1.6,0,2.9-0.9,3.6-2.2c0,0.2-0.1,0.4-0.1,0.6c0,1.7,1.4,3.1,3.1,3.1c1.7,0,3.1-1.4,3.1-3.1c0-1.7-1.4-3.1-3.1-3.1
		c-1.2,0-2.2,0.7-2.7,1.6c0.1-0.3,0.1-0.6,0.1-1c0-0.8-0.2-1.5-0.6-2.1c2-0.2,3.5-1.8,3.5-3.8c0-1.1-0.5-2.1-1.2-2.8
		c1.7-0.3,3.1-1.8,3.1-3.6c0-1.4-0.8-2.6-1.9-3.2c1.6-0.3,2.8-1.7,2.8-3.4c0-1.8-1.4-3.3-3.1-3.4c1.7-0.1,3.1-1.5,3.1-3.3
		c0-1.8-1.5-3.3-3.3-3.3c-1.8,0-3.3,1.5-3.3,3.3c0,1.7,1.3,3.1,2.9,3.3c-1.8,0.1-3.2,1.6-3.2,3.5c0,1.3,0.7,2.4,1.8,3
		c-1.7,0.3-3,1.8-3,3.6c0,1,0.4,1.9,1.1,2.6c-1.9,0.3-3.3,1.9-3.3,3.8c0,0.7,0.2,1.4,0.5,1.9c-2.1,0.1-3.8,1.9-3.8,4
		c0,0.4,0.1,0.8,0.2,1.2c-0.1,0-0.1,0-0.2,0c-2.3,0-4.2,1.9-4.2,4.2c0,0.1,0,0.2,0,0.3c-0.2,0-0.4-0.1-0.7-0.1c-2.2,0-4,1.6-4.3,3.8
		c-0.4-0.1-0.8-0.2-1.2-0.2c-1.8,0-3.4,1.1-4.1,2.6c-0.9-0.7-2.1-1.1-3.3-0.8c-1.3,0.3-2.4,1.1-2.9,2.3c-0.9-0.9-2.2-1.4-3.5-1.3
		c-1.3,0.2-2.4,1-3,2.1c-0.7-0.9-1.9-1.5-3.1-1.5c-1.2,0-2.2,0.5-3,1.3c-0.5-1-1.4-1.9-2.5-2.2c-1.2-0.4-2.5-0.1-3.5,0.6
		c-0.3-1.2-1-2.2-2.2-2.8c-1.1-0.5-2.4-0.5-3.4,0c0-1.1-0.5-2.3-1.5-3c-0.9-0.7-2.1-1-3.2-0.8c0.3-1.1,0-2.3-0.7-3.3
		c-0.8-1-2-1.6-3.2-1.6c0.5-1.1,0.5-2.4-0.1-3.5c-0.5-1-1.5-1.7-2.5-2c0.7-0.8,1-2,0.8-3.1c-0.2-1.2-1-2.3-2-2.9
		c1-0.8,1.6-1.9,1.6-3.3c0-1.2-0.5-2.3-1.4-3c1-0.5,1.8-1.4,2.1-2.6c0.3-1.2,0-2.4-0.6-3.3c1.1-0.2,2-0.9,2.6-1.9
		c0.6-1.1,0.7-2.3,0.3-3.4c1.2,0.1,2.4-0.4,3.2-1.3c0.8-0.9,1.2-2.1,1-3.3c1.1,0.3,2.3,0.1,3.3-0.6c1-0.7,1.6-1.8,1.7-2.9
		c1,0.5,2.3,0.6,3.4,0.2c1.1-0.5,1.9-1.3,2.2-2.3c0.8,0.7,1.9,1.1,3.1,1h0c1.3-0.1,2.4-0.8,3-1.9c0.7,1,1.7,1.6,3,1.7
		c1.2,0.1,2.3-0.4,3.1-1.1c0.4,1.1,1.3,1.9,2.5,2.3c1.2,0.4,2.5,0.2,3.5-0.5c0.2,1.2,0.9,2.2,2,2.8h0c0.9,0.5,1.9,0.6,2.9,0.4
		c0.1,0.2,0.2,0.3,0.3,0.4c0.1,0.9,0.4,1.7,1,2.4c0,0,0.1,0.1,0.1,0.1c2.1,2.2,6.8,7.4,5.9,14.4c-0.2,1.7,0.8,2.6,2,1.3
		c7.6-8.2,6.4-18.2,6.2-19.4c0-0.8-0.2-1.5-0.5-2.2c0.1-0.4,0.1-0.9,0.1-1.3c0-2.1-1-4-2.6-5.2c0.1-0.4,0.1-0.8,0.1-1.2
		c0-2.6-1.6-4.8-3.9-5.8c-0.1-2.9-2.2-5.3-5-5.8c-0.5-2.6-2.8-4.6-5.6-4.6c-0.1,0-0.2,0-0.3,0c-0.7-2.1-2.7-3.7-5.1-3.7
		c-0.5,0-0.9,0.1-1.3,0.2c-0.8-1.8-2.6-3-4.6-3c-0.8,0-1.6,0.2-2.2,0.5c-0.8-1.4-2.4-2.4-4.1-2.4c-1.1,0-2.2,0.4-3,1
		c-0.8-1.1-2.1-1.9-3.6-1.9c-1.4,0-2.7,0.7-3.5,1.7c-0.8-0.9-1.9-1.5-3.2-1.5c-1.7,0-3.1,1-3.8,2.4c-0.7-0.8-1.7-1.3-2.9-1.3
		c-2,0-3.6,1.5-3.8,3.4c-0.6-0.8-1.6-1.4-2.7-1.4c-1.9,0-3.4,1.5-3.4,3.4C60.8,278.5,62.4,280,64.3,280"/>
	<path class="st0" d="M41.1,369.1c-0.1,0-0.3,0.1-0.3,0.3c0,0.1,0.1,0.3,0.3,0.3c0.2,0,0.3-0.1,0.3-0.3
		C41.3,369.2,41.2,369.1,41.1,369.1"/>
	<path class="st0" d="M38,362.9c-0.3,0-0.5,0.2-0.5,0.5s0.2,0.5,0.5,0.5c0.3,0,0.5-0.2,0.5-0.5S38.2,362.9,38,362.9"/>
	<path class="st0" d="M35.5,356.4c-0.4,0-0.8,0.4-0.8,0.8s0.4,0.8,0.8,0.8c0.4,0,0.8-0.4,0.8-0.8S35.9,356.4,35.5,356.4"/>
	<path class="st0" d="M33.7,349.7c-0.6,0-1.1,0.5-1.1,1.1c0,0.6,0.5,1.1,1.1,1.1c0.6,0,1.1-0.5,1.1-1.1
		C34.7,350.1,34.2,349.7,33.7,349.7"/>
	<path class="st0" d="M33.9,344.1c0-0.7-0.6-1.3-1.3-1.3c-0.7,0-1.3,0.6-1.3,1.3c0,0.7,0.6,1.3,1.3,1.3
		C33.3,345.4,33.9,344.8,33.9,344.1"/>
	<path class="st0" d="M33.7,337.4c0-0.9-0.7-1.6-1.6-1.6c-0.9,0-1.6,0.7-1.6,1.6c0,0.9,0.7,1.6,1.6,1.6
		C33,339,33.7,338.3,33.7,337.4"/>
	<path class="st0" d="M30.5,330.7c0,1,0.8,1.9,1.9,1.9c1,0,1.9-0.8,1.9-1.9c0-1-0.8-1.9-1.9-1.9C31.4,328.8,30.5,329.7,30.5,330.7"
		/>
	<path class="st0" d="M33.4,326.2c1.2,0,2.1-1,2.1-2.1c0-1.2-1-2.1-2.1-2.1c-1.2,0-2.1,1-2.1,2.1C31.3,325.2,32.2,326.2,33.4,326.2"
		/>
	<path class="st0" d="M35.3,315.2c-1.3,0-2.4,1.1-2.4,2.4c0,1.3,1.1,2.4,2.4,2.4c1.3,0,2.4-1.1,2.4-2.4
		C37.7,316.3,36.6,315.2,35.3,315.2"/>
	<path class="st0" d="M37.9,314.1c1.5,0,2.7-1.2,2.7-2.7c0-1.5-1.2-2.7-2.7-2.7c-1.5,0-2.7,1.2-2.7,2.7
		C35.3,312.9,36.5,314.1,37.9,314.1"/>
	<path class="st0" d="M41.4,308.6c1.6,0,2.9-1.3,2.9-2.9s-1.3-2.9-2.9-2.9c-1.6,0-2.9,1.3-2.9,2.9S39.8,308.6,41.4,308.6"/>
	<path class="st0" d="M48.8,300.4c0-1.8-1.4-3.2-3.2-3.2c-1.8,0-3.2,1.4-3.2,3.2c0,1.8,1.4,3.2,3.2,3.2
		C47.3,303.6,48.8,302.2,48.8,300.4"/>
	<path class="st0" d="M213.6,351.6c-3.5,0-6.8-0.7-9.9-2c-3.1-1.3-5.8-3.2-8.1-5.5c-2.3-2.3-4.1-5-5.4-8.1c-1.3-3.1-2-6.4-2-9.9
		s0.7-6.9,2-10c1.3-3.1,3.1-5.8,5.4-8.1c2.3-2.3,5-4.2,8.1-5.5c3.1-1.4,6.4-2,9.9-2c3.5,0,6.9,0.7,10,2.1c3.1,1.4,5.8,3.3,8.2,5.7
		c0.5,0.5,0.9,1.1,1.1,1.9c0.3,0.9,0.2,1.7-0.3,2.5c-0.6,0.9-1.4,1.3-2.5,1.4h0c-1.2,0-2-0.3-2.7-1c-1.7-1.5-3.9-2.9-6.3-4.2
		c-2.3-1.2-4.9-1.8-7.5-1.8c-2.6,0-5.1,0.5-7.4,1.5c-2.3,1-4.3,2.4-6,4.1c-1.7,1.8-3,3.8-4,6.1c-1,2.3-1.5,4.8-1.5,7.4
		c0,2.6,0.5,5.1,1.5,7.4c1,2.3,2.3,4.3,4,6c1.7,1.7,3.7,3.1,6,4.1c2.3,1,4.8,1.5,7.4,1.5c2.7,0,5.3-0.5,7.7-1.6
		c2.4-1,4.4-2.5,6.2-4.4c0.5-0.6,1.2-1,2-1.2c0.3-0.1,0.5-0.1,0.8-0.1c0.6,0,1.2,0.2,1.7,0.5c0.8,0.7,1.2,1.6,1.2,2.6
		c0,1-0.3,1.9-0.9,2.6c-2.3,2.6-5.1,4.6-8.3,6C220.8,350.8,217.3,351.6,213.6,351.6"/>
	<path class="st0" d="M266.8,351.5c-3.5,0-6.8-0.7-9.9-2c-3.1-1.3-5.8-3.2-8.1-5.4c-2.3-2.3-4.1-5-5.4-8.1c-1.3-3.1-2-6.4-2-9.9
		c0-3.5,0.7-6.8,2-9.9c1.3-3.1,3.2-5.8,5.4-8.1c2.3-2.3,5-4.1,8.1-5.5c3.1-1.3,6.4-2,9.9-2c3.5,0,6.8,0.7,9.9,2
		c3.1,1.3,5.8,3.2,8.1,5.5c2.3,2.3,4.1,5,5.5,8.1c1.3,3.1,2,6.4,2,9.9c0,3.5-0.7,6.8-2,9.9s-3.2,5.8-5.5,8.1c-2.3,2.3-5,4.1-8.1,5.4
		C273.6,350.8,270.3,351.5,266.8,351.5 M266.8,307.1c-2.6,0-5.1,0.5-7.4,1.5c-2.3,1-4.3,2.3-6,4c-1.7,1.7-3.1,3.8-4,6.1
		c-1,2.3-1.5,4.8-1.5,7.4c0,2.6,0.5,5.1,1.5,7.4c1,2.3,2.3,4.3,4,6c1.7,1.7,3.7,3,6,4c2.3,1,4.8,1.5,7.4,1.5c2.6,0,5.1-0.5,7.4-1.5
		c2.3-1,4.3-2.3,6-4c1.7-1.7,3.1-3.7,4.1-6c1-2.3,1.5-4.8,1.5-7.4c0-2.6-0.5-5.1-1.5-7.4c-1-2.3-2.3-4.3-4.1-6.1
		c-1.7-1.7-3.7-3.1-6-4C271.9,307.6,269.4,307.1,266.8,307.1"/>
	<path class="st0" d="M337.3,351.6c-0.9,0-1.7-0.3-2.3-1c-0.6-0.6-1-1.4-1-2.3v-29.1c0-1.7-0.3-3.2-1-4.7c-0.6-1.5-1.5-2.8-2.7-3.9
		c-1.1-1.1-2.5-2-3.9-2.7c-1.5-0.6-3.1-1-4.7-1c-1.7,0-3.3,0.3-4.7,1c-1.5,0.6-2.8,1.5-3.9,2.7c-1.1,1.1-2,2.5-2.6,3.9
		c-0.6,1.5-1,3.1-1,4.7v29.1c0,0.9-0.3,1.7-1,2.3c-0.6,0.6-1.4,0.9-2.3,0.9c-0.9,0-1.7-0.3-2.3-1c-0.6-0.6-1-1.4-1-2.3v-29.1
		c0-2.6,0.5-5,1.5-7.3c1-2.3,2.3-4.3,4-6c1.7-1.7,3.7-3.1,6-4c2.3-1,4.7-1.5,7.3-1.5c2.6,0,5,0.5,7.3,1.5c2.3,1,4.3,2.3,6,4
		c1.7,1.7,3.1,3.7,4,6c1,2.3,1.5,4.8,1.5,7.3v29.1c0,0.9-0.3,1.7-0.9,2.3C339,351.3,338.2,351.6,337.3,351.6"/>
	<path class="st0" d="M369.5,351.6c-2.5,0-4.9-0.4-7.1-1.2c-2.2-0.8-4.2-1.9-5.8-3.4c-1.7-1.4-3-3.1-4-5c-1-1.9-1.4-4-1.4-6.2
		c0-0.8,0.3-1.6,0.9-2.2c0.6-0.6,1.4-0.9,2.2-0.9c0.9,0,1.6,0.3,2.2,0.9c0.6,0.6,0.9,1.3,0.9,2.2c0,1.3,0.3,2.5,0.9,3.6
		c0.6,1.1,1.4,2.1,2.5,3c1.1,0.8,2.3,1.5,3.8,2c1.5,0.5,3.1,0.8,4.8,0.8s3.3-0.3,4.8-0.8c1.5-0.5,2.8-1.2,3.9-2.1
		c1.1-0.8,2-1.8,2.6-3c0.6-1.1,0.8-2.3,0.8-3.6c-0.1-1.2-0.5-2.3-1.1-3.3c-0.7-1.1-1.5-2-2.6-2.9c-1-0.8-2.3-1.5-3.7-2.1
		c-1.4-0.6-2.8-1-4.4-1.2c-2.2-0.1-4.3-0.6-6.4-1.3c-2-0.7-3.9-1.6-5.4-2.7c-1.6-1.1-2.9-2.4-3.8-3.9c-1-1.5-1.5-3.3-1.5-5.1
		c0-1.9,0.5-3.6,1.4-5.2c0.9-1.6,2.2-3,3.7-4.1c1.5-1.2,3.4-2.1,5.5-2.8c2.1-0.7,4.3-1,6.6-1c2.3,0,4.6,0.3,6.6,1
		c2.1,0.7,3.9,1.6,5.5,2.8c1.6,1.2,2.8,2.6,3.7,4.1c0.9,1.6,1.4,3.3,1.4,5.2c0,0.9-0.3,1.7-1,2.3c-0.6,0.6-1.4,1-2.3,1
		c-0.9,0-1.7-0.3-2.3-1c-0.6-0.6-0.9-1.5-1-2.5c0-0.8-0.3-1.5-0.8-2.2c-0.6-0.8-1.3-1.4-2.3-2c-1-0.6-2.1-1.1-3.4-1.5
		c-1.3-0.4-2.7-0.5-4.2-0.5c-1.5,0-2.9,0.2-4.3,0.5c-1.3,0.4-2.5,0.8-3.4,1.5c-0.9,0.6-1.7,1.3-2.2,2.2c-0.5,0.8-0.8,1.6-0.8,2.4
		c0,0.8,0.3,1.5,0.9,2.2c0.7,0.8,1.6,1.4,2.6,2c1.1,0.6,2.3,1.1,3.6,1.5c1.3,0.4,2.5,0.7,3.6,0.8c2.4,0.3,4.7,0.8,6.9,1.7
		c2.2,0.9,4.1,2,5.7,3.3c1.6,1.4,2.9,3,3.9,4.8c0.9,1.8,1.4,3.9,1.4,6c0,2.2-0.5,4.3-1.4,6.2c-0.9,1.9-2.3,3.6-4,5
		c-1.7,1.4-3.6,2.5-5.8,3.3C374.4,351.2,372,351.6,369.5,351.6"/>
	<path class="st0" d="M402.5,351.6c-0.9,0-1.7-0.3-2.3-1c-0.6-0.6-1-1.4-1-2.3v-44.7c0-0.9,0.3-1.7,1-2.3c0.6-0.6,1.4-1,2.3-1h27.3
		c0.9,0,1.7,0.3,2.3,1c0.6,0.6,0.9,1.4,0.9,2.3c0,0.9-0.3,1.7-0.9,2.3c-0.6,0.6-1.4,1-2.3,1h-24v15.7h17c0.9,0,1.7,0.3,2.3,1
		c0.6,0.6,1,1.4,1,2.3c0,0.9-0.3,1.7-1,2.3c-0.6,0.6-1.4,0.9-2.3,0.9h-17v16h24c0.9,0,1.7,0.3,2.3,1c0.6,0.6,0.9,1.4,0.9,2.3
		c0,0.9-0.3,1.7-0.9,2.3c-0.6,0.6-1.4,1-2.3,1H402.5z"/>
	<path class="st0" d="M476.2,351.6c-0.9,0-1.7-0.3-2.3-0.9c-0.6-0.6-1-1.4-1-2.3v-29.1c0-1.7-0.3-3.2-1-4.7
		c-0.6-1.5-1.5-2.8-2.7-3.9c-1.1-1.1-2.5-2-3.9-2.7c-1.5-0.6-3.1-1-4.7-1c-1.7,0-3.3,0.3-4.7,1c-1.5,0.6-2.8,1.5-3.9,2.7
		c-1.1,1.1-2,2.5-2.6,3.9c-0.6,1.5-1,3.1-1,4.7v29.1c0,0.9-0.3,1.7-1,2.3c-0.6,0.6-1.4,0.9-2.3,0.9c-0.9,0-1.7-0.3-2.3-0.9
		c-0.6-0.6-0.9-1.4-0.9-2.3v-29.1c0-2.6,0.5-5,1.5-7.3c1-2.3,2.3-4.3,4-6c1.7-1.7,3.7-3.1,6-4c2.3-1,4.8-1.5,7.3-1.5
		c2.6,0,5,0.5,7.3,1.5c2.2,1,4.3,2.3,6,4c1.7,1.7,3.1,3.7,4,6c1,2.3,1.5,4.8,1.5,7.3v29.1c0,0.9-0.3,1.7-0.9,2.3
		C477.9,351.3,477.1,351.6,476.2,351.6"/>
	<path class="st0" d="M508.4,351.6c-2.5,0-4.9-0.4-7.1-1.2c-2.2-0.8-4.2-1.9-5.8-3.4c-1.7-1.4-3-3.1-4-5c-1-1.9-1.4-4-1.4-6.2
		c0-0.8,0.3-1.6,0.9-2.2c0.6-0.6,1.4-0.9,2.2-0.9c0.9,0,1.6,0.3,2.2,0.9c0.6,0.6,0.9,1.4,0.9,2.2c0,1.3,0.3,2.5,0.9,3.6
		c0.6,1.1,1.4,2.2,2.5,3c1.1,0.9,2.4,1.5,3.8,2.1c1.5,0.5,3.1,0.8,4.8,0.8c1.7,0,3.3-0.3,4.8-0.8c1.5-0.5,2.8-1.2,3.9-2.1
		c1.1-0.8,2-1.9,2.6-3c0.6-1.1,0.8-2.3,0.7-3.6c-0.1-1.2-0.5-2.3-1.1-3.3c-0.7-1.1-1.5-2-2.6-2.9c-1-0.8-2.3-1.5-3.7-2.1
		c-1.4-0.6-2.8-1-4.4-1.2c-2.2-0.1-4.3-0.6-6.3-1.3c-2-0.7-3.9-1.6-5.4-2.7c-1.6-1.1-2.9-2.4-3.8-3.9c-1-1.5-1.5-3.3-1.5-5.1
		c0-1.8,0.5-3.6,1.4-5.2c0.9-1.6,2.2-3,3.8-4.1c1.6-1.2,3.4-2.1,5.4-2.8c2.1-0.7,4.3-1,6.6-1s4.6,0.3,6.6,1c2.1,0.7,3.9,1.6,5.5,2.8
		c1.6,1.2,2.8,2.6,3.7,4.1c0.9,1.6,1.4,3.4,1.4,5.2c0,0.9-0.3,1.7-1,2.3c-0.6,0.6-1.4,1-2.3,1c-0.9,0-1.7-0.3-2.3-1
		c-0.6-0.6-0.9-1.5-0.9-2.5c0-0.8-0.3-1.5-0.8-2.2c-0.5-0.8-1.3-1.4-2.3-2c-1-0.6-2.1-1.1-3.4-1.5c-1.3-0.4-2.7-0.5-4.2-0.5
		c-1.5,0-2.9,0.2-4.3,0.5c-1.3,0.4-2.5,0.8-3.4,1.5c-0.9,0.6-1.7,1.3-2.2,2.2c-0.5,0.8-0.8,1.6-0.8,2.4c0,0.8,0.3,1.5,0.9,2.2
		c0.7,0.8,1.6,1.4,2.6,2c1.1,0.6,2.3,1.1,3.6,1.5c1.2,0.4,2.5,0.7,3.6,0.8c2.4,0.3,4.7,0.8,6.9,1.7c2.2,0.9,4.1,2,5.7,3.3
		c1.6,1.4,2.9,3,3.8,4.8c0.9,1.8,1.4,3.9,1.4,6c0,2.2-0.5,4.3-1.4,6.2c-0.9,1.9-2.3,3.6-4,5c-1.7,1.4-3.6,2.5-5.8,3.3
		C513.3,351.2,510.9,351.6,508.4,351.6"/>
	<path class="st0" d="M557.7,351.6c-0.9,0-1.7-0.3-2.3-0.9c-0.6-0.6-1-1.4-1-2.3v-16.7l-20.2-26c-0.5-0.7-0.8-1.5-0.7-2.4
		c0.1-0.9,0.5-1.6,1.2-2.2c0.6-0.5,1.3-0.7,2.1-0.7c1.1,0.1,1.9,0.5,2.5,1.2l18.5,23.7l18.8-23.7c0.6-0.7,1.3-1.1,2.2-1.2h0.1
		c1,0,1.7,0.2,2.3,0.7c0.7,0.6,1.1,1.3,1.2,2.2c0.1,0.9-0.2,1.7-0.7,2.4l-20.5,26v16.7c0,0.9-0.3,1.7-0.9,2.3
		C559.4,351.3,558.6,351.6,557.7,351.6"/>
	<path class="st0" d="M606.9,351.6c-2.5,0-4.9-0.4-7.1-1.2c-2.2-0.8-4.2-1.9-5.8-3.4c-1.7-1.4-3-3.1-4-5c-1-1.9-1.4-4-1.4-6.2
		c0-0.8,0.3-1.6,0.9-2.2c0.6-0.6,1.4-0.9,2.2-0.9c0.8,0,1.6,0.3,2.2,0.9c0.6,0.6,0.9,1.4,0.9,2.2c0,1.3,0.3,2.5,0.9,3.6
		c0.6,1.1,1.4,2.1,2.5,3c1.1,0.8,2.4,1.5,3.8,2c1.5,0.5,3.1,0.8,4.8,0.8c1.7,0,3.3-0.3,4.8-0.8c1.5-0.5,2.8-1.2,3.9-2.1
		c1.1-0.8,2-1.9,2.6-3c0.6-1.1,0.8-2.3,0.7-3.6c-0.1-1.2-0.5-2.3-1.1-3.3c-0.7-1.1-1.5-2-2.6-2.9c-1-0.8-2.3-1.5-3.7-2.1
		c-1.4-0.6-2.8-1-4.4-1.2c-2.2-0.1-4.3-0.6-6.4-1.3c-2-0.7-3.9-1.6-5.4-2.7c-1.6-1.1-2.9-2.4-3.8-3.9c-1-1.5-1.5-3.3-1.5-5.1
		c0-1.8,0.5-3.6,1.4-5.2c0.9-1.6,2.2-3,3.8-4.1c1.5-1.2,3.4-2.1,5.4-2.8c2.1-0.7,4.3-1,6.6-1c2.3,0,4.6,0.3,6.6,1
		c2.1,0.7,3.9,1.6,5.4,2.8c1.6,1.2,2.8,2.5,3.8,4.1c0.9,1.6,1.4,3.4,1.4,5.2c0,0.9-0.3,1.7-1,2.3c-0.6,0.6-1.4,1-2.3,1
		c-0.9,0-1.7-0.3-2.3-1c-0.6-0.6-0.9-1.5-1-2.5c0-0.8-0.3-1.5-0.8-2.2c-0.6-0.8-1.3-1.4-2.3-2c-1-0.6-2.1-1.1-3.4-1.5
		c-1.3-0.4-2.7-0.5-4.2-0.5c-1.5,0-2.9,0.2-4.3,0.5c-1.3,0.4-2.5,0.8-3.4,1.5c-0.9,0.6-1.7,1.3-2.2,2.2c-0.5,0.8-0.8,1.6-0.8,2.4
		c0,0.8,0.3,1.5,0.9,2.2c0.7,0.8,1.6,1.4,2.6,2c1.1,0.6,2.3,1.1,3.6,1.5c1.3,0.4,2.5,0.7,3.6,0.8c2.4,0.3,4.7,0.8,6.9,1.7
		c2.2,0.9,4.1,2,5.7,3.3c1.6,1.4,2.9,3,3.8,4.8c0.9,1.8,1.4,3.8,1.4,6c0,2.2-0.5,4.3-1.4,6.2c-0.9,1.9-2.3,3.6-4,5
		c-1.7,1.4-3.6,2.5-5.8,3.3C611.8,351.2,609.4,351.6,606.9,351.6"/>
</g>
</svg>
