<?xml version="1.0" encoding="utf-8"?>
<!-- Generator: Adobe Illustrator 23.0.3, SVG Export Plug-In . SVG Version: 6.00 Build 0)  -->
<svg version="1.1" id="Layer_1" xmlns="http://www.w3.org/2000/svg" xmlns:xlink="http://www.w3.org/1999/xlink" x="0px" y="0px"
	 viewBox="0 0 164 62" style="enable-background:new 0 0 164 62;" xml:space="preserve">
<style type="text/css">
	.st0{fill:none;stroke:#000000;stroke-width:10;stroke-miterlimit:10;}
	.st1{fill:none;stroke:#000000;stroke-miterlimit:10;}
	.st2{fill:none;stroke:#000000;stroke-width:5;stroke-miterlimit:10;}
	.st3{fill:url(#SVGID_1_);}
	.st4{fill:url(#SVGID_2_);}
	.st5{fill:url(#SVGID_3_);}
</style>
<circle class="st0" cx="348.3" cy="-633.8" r="75"/>
<polygon points="99.8,-687.8 84.8,-687.8 77.3,-674.8 84.8,-661.8 99.8,-661.8 107.3,-674.8 "/>
<polygon points="76.8,-700.8 61.8,-700.8 54.3,-687.8 61.8,-674.8 76.8,-674.8 84.3,-687.8 "/>
<polygon points="122.8,-700.8 107.8,-700.8 100.3,-687.8 107.8,-674.8 122.8,-674.8 130.3,-687.8 "/>
<polygon points="99.8,-713.8 84.8,-713.8 77.3,-700.8 84.8,-687.8 99.8,-687.8 107.3,-700.8 "/>
<polygon points="122.8,-674.8 107.8,-674.8 100.3,-661.8 107.8,-648.8 122.8,-648.8 130.3,-661.8 "/>
<polygon points="99.8,-661.8 84.8,-661.8 77.3,-648.8 84.8,-635.8 99.8,-635.8 107.3,-648.8 "/>
<polygon points="76.8,-674.8 61.8,-674.8 54.3,-661.8 61.8,-648.8 76.8,-648.8 84.3,-661.8 "/>
<image style="overflow:visible;" width="1300" height="1300" xlink:href="2B739F46.jpg"  transform="matrix(1 0 0 1 1017.25 -1337.75)">
</image>
<path class="st1" d="M1640.3-211.8v-182c0-37.5-15.9-73.3-43.8-98.4l-35.7-32.1"/>
<path class="st1" d="M1662.8-169.3v-412.8c0-27.1-10.2-53.3-28.7-73.2l-120.3-130"/>
<circle class="st1" cx="1560.3" cy="-523.8" r="18"/>
<circle class="st1" cx="1513.8" cy="-785.3" r="31"/>
<g>
	<line class="st0" x1="348.3" y1="-558.8" x2="348.3" y2="-648.8"/>
	<line class="st0" x1="317.8" y1="-564.8" x2="317.8" y2="-648.8"/>
	<line class="st0" x1="379.3" y1="-564.8" x2="378.8" y2="-648.8"/>
</g>
<g>
	<line class="st2" x1="258.5" y1="-360" x2="210" y2="-360"/>
</g>
<g>
	<path class="st2" d="M258.5-360h-5.4c-6.4,0-11.6-5.2-11.6-11.6v-10.6c0-4.3-3.5-7.8-7.8-7.8h-5"/>
</g>
<circle class="st2" cx="276.5" cy="-360" r="17.8"/>
<circle class="st2" cx="197" cy="-360.5" r="12.3"/>
<circle class="st2" cx="219" cy="-390.5" r="8.3"/>
<g>
	<path class="st2" d="M183.5-360h-5.4c-6.4,0-11.6-5.2-11.6-11.6v-10.6c0-4.3-3.5-7.8-7.8-7.8h-6"/>
</g>
<circle class="st2" cx="144" cy="-390.5" r="8.8"/>
<g>
	<path class="st2" d="M155.5-330"/>
	<path class="st2" d="M182.8-360h-29.6"/>
</g>
<circle class="st2" cx="144.3" cy="-360.8" r="7.5"/>
<g>
	<linearGradient id="SVGID_1_" gradientUnits="userSpaceOnUse" x1="-72.25" y1="-244.125" x2="86.5" y2="-244.125">
		<stop  offset="0" style="stop-color:#EC145A"/>
		<stop  offset="0.2568" style="stop-color:#BB5E6B"/>
		<stop  offset="0.5476" style="stop-color:#009792"/>
		<stop  offset="0.7636" style="stop-color:#55B259"/>
		<stop  offset="1" style="stop-color:#73BE44"/>
	</linearGradient>
	<path class="st3" d="M54.1-230.5h2.6c1.2,7.1,7.4,12.5,14.8,12.5c8.3,0,15-6.7,15-15s-6.7-15-15-15c-7.4,0-13.6,5.4-14.8,12.5h-2.6
		c-5,0-9.1-4.1-9.1-9.1v-10.6c0-5.7-4.6-10.3-10.3-10.3h-4.2c-0.9-5-5.3-8.8-10.6-8.8c-5.9,0-10.8,4.8-10.8,10.8s4.8,10.8,10.8,10.8
		c4.9,0,9-3.3,10.3-7.8h4.4c2.9,0,5.3,2.4,5.3,5.3v10.6c0,3.5,1.3,6.7,3.4,9.1H14.9c-1-10.1-9.5-18-19.9-18s-18.9,7.9-19.9,18h-2
		c-5,0-9.1-4.1-9.1-9.1v-10.6c0-5.7-4.6-10.3-10.3-10.3h-3.7c-0.9-5.3-5.5-9.3-11.1-9.3c-6.2,0-11.3,5-11.3,11.3s5,11.3,11.3,11.3
		c5.2,0,9.5-3.5,10.8-8.3h3.9c2.9,0,5.3,2.4,5.3,5.3v10.6c0,3.5,1.3,6.7,3.4,9.1h-13.3c-0.8-4.7-4.9-8.3-9.8-8.3
		c-5.5,0-10,4.5-10,10s4.5,10,10,10c4.4,0,8.1-2.8,9.4-6.8h24.4h2.1c1.5,9.6,9.7,17,19.7,17s18.3-7.4,19.7-17H54.1z M20-257.8
		c-3.2,0-5.8-2.6-5.8-5.8s2.6-5.8,5.8-5.8s5.8,2.6,5.8,5.8S23.2-257.8,20-257.8z M-61-257.3c-3.4,0-6.3-2.8-6.3-6.3s2.8-6.3,6.3-6.3
		s6.3,2.8,6.3,6.3S-57.6-257.3-61-257.3z M-60.8-228.8c-2.8,0-5-2.2-5-5s2.2-5,5-5s5,2.2,5,5S-58-228.8-60.8-228.8z M-5-218.5
		c-8.3,0-15-6.7-15-15s6.7-15,15-15s15,6.7,15,15S3.3-218.5-5-218.5z M71.5-223c-5.5,0-10-4.5-10-10s4.5-10,10-10s10,4.5,10,10
		S77-223,71.5-223z"/>
</g>
<g>
	<linearGradient id="SVGID_2_" gradientUnits="userSpaceOnUse" x1="0" y1="31" x2="164" y2="31">
		<stop  offset="0" style="stop-color:#EC145A"/>
		<stop  offset="0.2568" style="stop-color:#BB5E6B"/>
		<stop  offset="0.5476" style="stop-color:#009792"/>
		<stop  offset="0.7636" style="stop-color:#55B259"/>
		<stop  offset="1" style="stop-color:#73BE44"/>
	</linearGradient>
	<path class="st4" d="M143.8,21.5c-10.3,0-18.8,7.8-20.1,17.8h-3.3c-5,0-9.1-4.1-9.1-9.1V19.5c0-5.7-4.6-10.3-10.3-10.3h-4.2
		c-0.9-5-5.3-8.8-10.6-8.8c-5.9,0-10.8,4.8-10.8,10.8S80.3,22,86.3,22c4.9,0,9-3.3,10.3-7.8h4.4c2.9,0,5.3,2.4,5.3,5.3v10.6
		c0,3.5,1.3,6.7,3.4,9.1H78.8c-1-7.2-7.1-12.8-14.6-12.8s-13.6,5.6-14.6,12.8h-4.3c-5,0-9.1-4.1-9.1-9.1V19.5
		c0-5.7-4.6-10.3-10.3-10.3h-3.7C21.4,4,16.8,0,11.3,0C5,0,0,5,0,11.3s5,11.3,11.3,11.3c5.2,0,9.5-3.5,10.8-8.3H26
		c2.9,0,5.3,2.4,5.3,5.3v10.6c0,3.5,1.3,6.7,3.4,9.1H21.3c-0.8-4.7-4.9-8.3-9.8-8.3c-5.5,0-10,4.5-10,10s4.5,10,10,10
		c4.4,0,8.1-2.8,9.4-6.8h24.4h4.4C51.2,50.9,57.1,56,64.3,56s13.1-5.1,14.4-11.8h41.7h3.3c1.2,10,9.8,17.8,20.1,17.8
		c11.2,0,20.3-9.1,20.3-20.3S154.9,21.5,143.8,21.5z M86.3,17c-3.2,0-5.8-2.6-5.8-5.8s2.6-5.8,5.8-5.8S92,8.1,92,11.3
		S89.4,17,86.3,17z M11.3,17.5c-3.4,0-6.3-2.8-6.3-6.3S7.8,5,11.3,5s6.3,2.8,6.3,6.3S14.7,17.5,11.3,17.5z M11.5,46
		c-2.8,0-5-2.2-5-5s2.2-5,5-5s5,2.2,5,5S14.3,46,11.5,46z M64.3,51c-5.4,0-9.8-4.4-9.8-9.8s4.4-9.8,9.8-9.8s9.8,4.4,9.8,9.8
		S69.6,51,64.3,51z M143.8,57c-8.4,0-15.3-6.8-15.3-15.3s6.8-15.3,15.3-15.3S159,33.3,159,41.8S152.2,57,143.8,57z"/>
	<linearGradient id="SVGID_3_" gradientUnits="userSpaceOnUse" x1="132.5" y1="41.75" x2="155" y2="41.75">
		<stop  offset="0" style="stop-color:#55B259"/>
		<stop  offset="1" style="stop-color:#73BE44"/>
	</linearGradient>
	<circle class="st5" cx="143.8" cy="41.8" r="11.3"/>
</g>
</svg>
