<?xml version="1.0" encoding="utf-8"?>
<!-- Generator: Adobe Illustrator 23.0.3, SVG Export Plug-In . SVG Version: 6.00 Build 0)  -->
<svg version="1.1" id="Layer_1" xmlns="http://www.w3.org/2000/svg" xmlns:xlink="http://www.w3.org/1999/xlink" x="0px" y="0px"
	 viewBox="0 0 137.8 17.9" style="enable-background:new 0 0 137.8 17.9;" xml:space="preserve">
<style type="text/css">
	.st0{fill:#FFFFFF;}
</style>
<path class="st0" d="M128.8,0c-4.4,0-8.1,3.2-8.8,7.4H77.7C77,3.2,73.3,0,68.9,0s-8.1,3.2-8.8,7.4H17.8C17,3.2,13.4,0,9,0
	C4,0,0,4,0,9s4,9,9,9c4.4,0,8.1-3.2,8.8-7.4h42.3c0.7,4.2,4.4,7.4,8.8,7.4s8.1-3.2,8.8-7.4H120c0.7,4.2,4.4,7.4,8.8,7.4
	c4.9,0,9-4,9-9S133.8,0,128.8,0z"/>
</svg>
