<svg width="168" height="175" viewBox="0 0 168 175" fill="none" xmlns="http://www.w3.org/2000/svg">
<rect x="53.6616" width="60.3692" height="6.70769" fill="#123077"/>
<rect x="33.5386" width="20.1231" height="6.70769" fill="#123077"/>
<rect width="20.1231" height="6.70769" transform="matrix(-1 0 0 1 134.154 0)" fill="#123077"/>
<rect x="26.8311" y="6.70767" width="6.70769" height="13.4154" fill="#123077"/>
<rect width="107.323" height="13.4154" transform="matrix(-1 0 0 1 140.862 6.70767)" fill="#123077"/>
<rect width="6.70769" height="6.70769" transform="matrix(-1 0 0 1 147.569 20.123)" fill="#123077"/>
<rect x="20.1235" y="20.123" width="120.738" height="13.4154" fill="#123077"/>
<rect width="6.70769" height="6.70769" transform="matrix(-1 0 0 1 147.569 26.8307)" fill="#123077"/>
<rect x="13.415" y="33.5384" width="6.70769" height="6.70769" fill="#123077"/>
<rect width="134.154" height="6.70769" transform="matrix(-1 0 0 1 154.277 33.5384)" fill="#123077"/>
<rect x="6.70752" y="40.2461" width="147.569" height="6.70769" fill="#123077"/>
<rect x="6.70752" y="114.031" width="6.70769" height="6.70769" fill="#123077"/>
<rect width="147.569" height="13.4154" transform="matrix(-1 0 0 1 160.984 114.031)" fill="#123077"/>
<rect x="6.70752" y="120.738" width="6.70769" height="6.70769" fill="#123077"/>
<rect width="6.70769" height="6.70769" transform="matrix(-1 0 0 1 160.984 120.738)" fill="#123077"/>
<rect x="13.415" y="127.446" width="134.154" height="6.70769" fill="#123077"/>
<rect width="6.70769" height="6.70769" transform="matrix(-1 0 0 1 154.277 127.446)" fill="#123077"/>
<rect x="20.1235" y="134.154" width="6.70769" height="6.70769" fill="#123077"/>
<rect width="120.738" height="6.70769" transform="matrix(-1 0 0 1 147.569 134.154)" fill="#123077"/>
<rect x="26.8311" y="140.861" width="107.323" height="6.70769" fill="#123077"/>
<rect width="6.70769" height="6.70769" transform="matrix(-1 0 0 1 140.862 140.861)" fill="#123077"/>
<rect x="33.5386" y="147.569" width="6.70769" height="6.70769" fill="#123077"/>
<rect width="93.9076" height="6.70769" transform="matrix(-1 0 0 1 134.154 147.569)" fill="#123077"/>
<rect x="40.2461" y="154.277" width="80.4923" height="6.70769" fill="#123077"/>
<rect width="6.70769" height="6.70769" transform="matrix(-1 0 0 1 127.445 154.277)" fill="#123077"/>
<rect x="46.9541" y="160.984" width="6.70769" height="6.70769" fill="#123077"/>
<rect x="53.6616" y="167.692" width="13.4154" height="6.70769" fill="#123077"/>
<rect width="67.0769" height="6.70769" transform="matrix(-1 0 0 1 120.739 160.984)" fill="#123077"/>
<rect width="13.4154" height="6.70769" transform="matrix(-1 0 0 1 114.03 167.692)" fill="#123077"/>
<rect x="67.0767" y="167.692" width="33.5384" height="6.70769" fill="#123077"/>
<rect width="6.70769" height="6.70769" transform="matrix(-1 0 0 1 160.984 40.2461)" fill="#123077"/>
<rect y="46.9539" width="6.70769" height="67.0769" fill="#123077"/>
<rect x="6.70752" y="46.9539" width="160.985" height="67.0769" fill="#123077"/>
<rect x="53.6616" width="60.3692" height="6.70769" fill="#D8A28F"/>
<rect x="33.5386" width="20.1231" height="6.70769" fill="#D8A28F"/>
<rect width="20.1231" height="6.70769" transform="matrix(-1 0 0 1 134.154 0)" fill="#D8A28F"/>
<rect x="26.8311" y="6.70767" width="6.70769" height="13.4154" fill="#D8A28F"/>
<rect width="6.70769" height="13.4154" transform="matrix(-1 0 0 1 140.862 6.70767)" fill="#D8A28F"/>
<rect width="6.70769" height="6.70769" transform="matrix(-1 0 0 1 147.569 20.123)" fill="#D8A28F"/>
<rect x="20.1235" y="20.123" width="6.70769" height="13.4154" fill="#D8A28F"/>
<rect width="6.70769" height="6.70769" transform="matrix(-1 0 0 1 147.569 26.8307)" fill="#D8A28F"/>
<rect x="13.415" y="33.5384" width="6.70769" height="6.70769" fill="#D8A28F"/>
<rect width="6.70769" height="6.70769" transform="matrix(-1 0 0 1 154.277 33.5384)" fill="#D8A28F"/>
<rect x="6.70752" y="40.2461" width="6.70769" height="6.70769" fill="#D8A28F"/>
<rect x="6.70752" y="114.031" width="6.70769" height="6.70769" fill="#D8A28F"/>
<rect width="6.70769" height="6.70769" transform="matrix(-1 0 0 1 160.984 114.031)" fill="#D8A28F"/>
<rect x="6.70752" y="120.738" width="6.70769" height="6.70769" fill="#D8A28F"/>
<rect width="6.70769" height="6.70769" transform="matrix(-1 0 0 1 160.984 120.738)" fill="#D8A28F"/>
<rect x="13.415" y="127.446" width="6.70769" height="6.70769" fill="#D8A28F"/>
<rect width="6.70769" height="6.70769" transform="matrix(-1 0 0 1 154.277 127.446)" fill="#D8A28F"/>
<rect x="20.1235" y="134.154" width="6.70769" height="6.70769" fill="#D8A28F"/>
<rect width="6.70769" height="6.70769" transform="matrix(-1 0 0 1 147.569 134.154)" fill="#D8A28F"/>
<rect x="26.8311" y="140.861" width="6.70769" height="6.70769" fill="#D8A28F"/>
<rect width="6.70769" height="6.70769" transform="matrix(-1 0 0 1 140.862 140.861)" fill="#D8A28F"/>
<rect x="33.5386" y="147.569" width="6.70769" height="6.70769" fill="#D8A28F"/>
<rect width="6.70769" height="6.70769" transform="matrix(-1 0 0 1 134.154 147.569)" fill="#D8A28F"/>
<rect x="40.2461" y="154.277" width="6.70769" height="6.70769" fill="#D8A28F"/>
<rect width="6.70769" height="6.70769" transform="matrix(-1 0 0 1 127.445 154.277)" fill="#D8A28F"/>
<rect x="46.9541" y="160.984" width="6.70769" height="6.70769" fill="#D8A28F"/>
<rect x="53.6616" y="167.692" width="13.4154" height="6.70769" fill="#D8A28F"/>
<rect width="6.70769" height="6.70769" transform="matrix(-1 0 0 1 120.739 160.984)" fill="#D8A28F"/>
<rect width="13.4154" height="6.70769" transform="matrix(-1 0 0 1 114.03 167.692)" fill="#D8A28F"/>
<rect x="67.0767" y="167.692" width="33.5384" height="6.70769" fill="#D8A28F"/>
<rect width="6.70769" height="6.70769" transform="matrix(-1 0 0 1 160.984 40.2461)" fill="#D8A28F"/>
<rect y="46.9539" width="6.70769" height="67.0769" fill="#D8A28F"/>
<rect x="160.984" y="46.9539" width="6.70769" height="67.0769" fill="#D8A28F"/>
<rect x="80.4927" y="40.2462" width="6.70769" height="73.7846" fill="#D8A28F"/>
<rect x="120.739" y="73.7846" width="6.70769" height="73.7846" transform="rotate(90 120.739 73.7846)" fill="#D8A28F"/>
</svg>
