<svg width="216" height="339" viewBox="0 0 216 339" fill="none" xmlns="http://www.w3.org/2000/svg">
<rect x="112.621" y="81.9058" width="220.691" height="10.2383" transform="rotate(90 112.621 81.9058)" fill="#6D91E9"/>
<rect x="206.471" y="173.3" width="51.1913" height="8.53188" transform="rotate(-90 206.471 173.3)" fill="#E5B7A0"/>
<rect x="197.939" y="181.832" width="8.53188" height="8.53188" transform="rotate(-90 197.939 181.832)" fill="#E5B7A0"/>
<rect x="189.407" y="190.364" width="8.53188" height="8.53188" transform="rotate(-90 189.407 190.364)" fill="#E5B7A0"/>
<rect x="146.748" y="198.896" width="8.53188" height="42.6594" transform="rotate(-90 146.748 198.896)" fill="#E5B7A0"/>
<rect x="138.216" y="139.172" width="42.6594" height="8.53188" transform="rotate(90 138.216 139.172)" fill="#E5B7A0"/>
<rect x="146.748" y="139.172" width="42.6594" height="8.53188" transform="rotate(90 146.748 139.172)" fill="#BD6242"/>
<rect x="155.28" y="130.641" width="42.6594" height="8.53188" transform="rotate(90 155.28 130.641)" fill="#BD6242"/>
<rect x="146.748" y="130.641" width="8.53188" height="8.53188" transform="rotate(90 146.748 130.641)" fill="#E5B7A0"/>
<rect x="146.748" y="181.832" width="8.53188" height="8.53188" transform="rotate(90 146.748 181.832)" fill="#E5B7A0"/>
<rect x="138.216" y="190.364" width="8.53188" height="8.53188" transform="rotate(90 138.216 190.364)" fill="#E5B7A0"/>
<rect x="129.684" y="198.896" width="8.53188" height="8.53188" transform="rotate(90 129.684 198.896)" fill="#E5B7A0"/>
<rect x="121.152" y="207.427" width="8.53188" height="8.53188" transform="rotate(90 121.152 207.427)" fill="#E5B7A0"/>
<rect x="155.28" y="122.108" width="8.53188" height="8.53188" transform="rotate(90 155.28 122.108)" fill="#E5B7A0"/>
<rect x="206.471" y="113.577" width="8.53188" height="51.1913" transform="rotate(90 206.471 113.577)" fill="#E5B7A0"/>
<rect x="206.471" y="122.108" width="8.53188" height="51.1913" transform="rotate(90 206.471 122.108)" fill="#BD6242"/>
<rect x="206.471" y="130.641" width="8.53188" height="51.1913" transform="rotate(90 206.471 130.641)" fill="#BD6242"/>
<rect x="206.471" y="139.172" width="8.53188" height="51.1913" transform="rotate(90 206.471 139.172)" fill="#BD6242"/>
<rect x="206.471" y="147.704" width="8.53188" height="51.1913" transform="rotate(90 206.471 147.704)" fill="#BD6242"/>
<rect x="206.471" y="156.236" width="8.53188" height="51.1913" transform="rotate(90 206.471 156.236)" fill="#BD6242"/>
<rect x="206.471" y="164.768" width="8.53188" height="51.1913" transform="rotate(90 206.471 164.768)" fill="#BD6242"/>
<rect x="197.939" y="173.3" width="8.53188" height="51.1913" transform="rotate(90 197.939 173.3)" fill="#BD6242"/>
<rect x="189.407" y="181.832" width="8.53188" height="42.6594" transform="rotate(90 189.407 181.832)" fill="#BD6242"/>
<rect x="155.28" y="173.3" width="8.53188" height="8.53188" transform="rotate(90 155.28 173.3)" fill="#E5B7A0"/>
<rect x="163.812" y="164.768" width="8.53188" height="8.53188" transform="rotate(90 163.812 164.768)" fill="#E5B7A0"/>
<rect x="172.344" y="156.236" width="8.53188" height="8.53188" transform="rotate(90 172.344 156.236)" fill="#E5B7A0"/>
<rect x="180.875" y="147.704" width="8.53188" height="8.53188" transform="rotate(90 180.875 147.704)" fill="#E5B7A0"/>
<rect x="189.407" y="139.172" width="8.53188" height="8.53188" transform="rotate(90 189.407 139.172)" fill="#E5B7A0"/>
<rect width="51.1913" height="8.53188" transform="matrix(-1.19249e-08 -1 -1 1.19249e-08 8.53174 173.3)" fill="#E5B7A0"/>
<rect width="8.53188" height="8.53188" transform="matrix(-1.19249e-08 -1 -1 1.19249e-08 17.0635 181.832)" fill="#E5B7A0"/>
<rect width="8.53188" height="8.53188" transform="matrix(-1.19249e-08 -1 -1 1.19249e-08 25.5962 190.364)" fill="#E5B7A0"/>
<rect width="8.53188" height="42.6594" transform="matrix(-1.19249e-08 -1 -1 1.19249e-08 68.2549 198.896)" fill="#E5B7A0"/>
<rect width="42.6594" height="8.53188" transform="matrix(1.19249e-08 1 1 -1.19249e-08 76.7866 139.172)" fill="#E5B7A0"/>
<rect width="42.6594" height="8.53188" transform="matrix(1.19249e-08 1 1 -1.19249e-08 68.2549 139.172)" fill="#BD6242"/>
<rect width="42.6594" height="8.53188" transform="matrix(1.19249e-08 1 1 -1.19249e-08 59.7231 130.641)" fill="#BD6242"/>
<rect width="8.53188" height="8.53188" transform="matrix(1.19249e-08 1 1 -1.19249e-08 68.2549 130.641)" fill="#E5B7A0"/>
<rect width="8.53188" height="8.53188" transform="matrix(1.19249e-08 1 1 -1.19249e-08 68.2549 181.832)" fill="#E5B7A0"/>
<rect width="8.53188" height="8.53188" transform="matrix(1.19249e-08 1 1 -1.19249e-08 76.7866 190.364)" fill="#E5B7A0"/>
<rect width="8.53188" height="8.53188" transform="matrix(1.19249e-08 1 1 -1.19249e-08 85.3193 198.896)" fill="#E5B7A0"/>
<rect width="8.53188" height="8.53188" transform="matrix(1.19249e-08 1 1 -1.19249e-08 93.8506 207.427)" fill="#E5B7A0"/>
<rect width="8.53188" height="8.53188" transform="matrix(1.19249e-08 1 1 -1.19249e-08 59.7231 122.108)" fill="#E5B7A0"/>
<rect width="8.53188" height="51.1913" transform="matrix(1.19249e-08 1 1 -1.19249e-08 8.53174 113.577)" fill="#E5B7A0"/>
<rect width="8.53188" height="51.1913" transform="matrix(1.19249e-08 1 1 -1.19249e-08 8.53174 122.108)" fill="#BD6242"/>
<rect width="8.53188" height="51.1913" transform="matrix(1.19249e-08 1 1 -1.19249e-08 8.53174 130.641)" fill="#BD6242"/>
<rect width="8.53188" height="51.1913" transform="matrix(1.19249e-08 1 1 -1.19249e-08 8.53174 139.172)" fill="#BD6242"/>
<rect width="8.53188" height="51.1913" transform="matrix(1.19249e-08 1 1 -1.19249e-08 8.53174 147.704)" fill="#BD6242"/>
<rect width="8.53188" height="51.1913" transform="matrix(1.19249e-08 1 1 -1.19249e-08 8.53174 156.236)" fill="#BD6242"/>
<rect width="8.53188" height="51.1913" transform="matrix(1.19249e-08 1 1 -1.19249e-08 8.53174 164.768)" fill="#BD6242"/>
<rect width="8.53188" height="51.1913" transform="matrix(1.19249e-08 1 1 -1.19249e-08 17.0635 173.3)" fill="#BD6242"/>
<rect width="8.53188" height="42.6594" transform="matrix(1.19249e-08 1 1 -1.19249e-08 25.5962 181.832)" fill="#BD6242"/>
<rect width="8.53188" height="8.53188" transform="matrix(1.19249e-08 1 1 -1.19249e-08 59.7231 173.3)" fill="#E5B7A0"/>
<rect width="8.53188" height="8.53188" transform="matrix(1.19249e-08 1 1 -1.19249e-08 51.1909 164.768)" fill="#E5B7A0"/>
<rect width="8.53188" height="8.53188" transform="matrix(1.19249e-08 1 1 -1.19249e-08 42.6592 156.236)" fill="#E5B7A0"/>
<rect width="8.53188" height="8.53188" transform="matrix(1.19249e-08 1 1 -1.19249e-08 34.1274 147.704)" fill="#E5B7A0"/>
<rect width="8.53188" height="8.53188" transform="matrix(1.19249e-08 1 1 -1.19249e-08 25.5962 139.172)" fill="#E5B7A0"/>
<rect x="46.6416" y="283.259" width="120.584" height="10.2383" fill="#BD6242"/>
<rect x="46.6416" y="293.497" width="120.584" height="10.2383" fill="#BD6242"/>
<rect x="46.6416" y="303.735" width="120.584" height="10.2383" fill="#BD6242"/>
<rect x="56.8799" y="313.974" width="100.107" height="10.2383" fill="#BD6242"/>
<rect x="67.1182" y="324.212" width="79.6309" height="10.2383" fill="#BD6242"/>
<rect x="46.6416" y="262.782" width="120.584" height="10.2383" fill="#E5B7A0"/>
<rect x="167.226" y="273.021" width="10.2383" height="35.2651" fill="#E5B7A0"/>
<rect x="36.4033" y="273.021" width="10.2383" height="35.2651" fill="#E5B7A0"/>
<rect x="46.6416" y="308.286" width="10.2383" height="10.2383" fill="#E5B7A0"/>
<rect x="56.8799" y="318.524" width="10.2383" height="10.2383" fill="#E5B7A0"/>
<rect x="156.987" y="308.286" width="10.2383" height="10.2383" fill="#E5B7A0"/>
<rect x="146.749" y="318.524" width="10.2383" height="10.2383" fill="#E5B7A0"/>
<path fill-rule="evenodd" clip-rule="evenodd" d="M67.1182 328.762H77.3564V339H67.1182V328.762ZM77.3565 328.762H136.511H146.749V339H136.511H77.3565V328.762Z" fill="#E5B7A0"/>
<rect x="46.6416" y="273.021" width="120.584" height="10.2383" fill="#BD6242"/>
<rect width="40.9539" height="10.2385" transform="matrix(-1 0 0 1 127.411 10.2383)" fill="#123077"/>
<rect width="61.4309" height="10.2385" transform="matrix(-1 0 0 1 137.649 20.4771)" fill="#123077"/>
<rect width="61.4309" height="10.2385" transform="matrix(-1 0 0 1 137.649 30.7153)" fill="#123077"/>
<rect width="61.4309" height="10.2385" transform="matrix(-1 0 0 1 137.649 40.9541)" fill="#123077"/>
<rect width="61.4309" height="10.2385" transform="matrix(-1 0 0 1 137.649 51.1924)" fill="#123077"/>
<rect width="51.1924" height="10.2385" transform="matrix(-1 0 0 1 127.411 61.4312)" fill="#123077"/>
<rect x="86.4609" width="40.9532" height="10.2383" fill="#6D91E9"/>
<rect x="127.412" y="10.2397" width="10.2383" height="10.2383" fill="#6D91E9"/>
<rect x="127.412" y="61.4277" width="10.2383" height="10.2383" fill="#6D91E9"/>
<rect x="137.65" y="20.4771" width="10.2383" height="40.9532" fill="#6D91E9"/>
<rect width="10.2383" height="10.2383" transform="matrix(-1 0 0 1 86.4609 10.2397)" fill="#6D91E9"/>
<rect width="20.4766" height="10.2383" transform="matrix(-1 0 0 1 117.169 20.4771)" fill="#6D91E9"/>
<rect width="20.4766" height="10.2383" transform="matrix(1.39071e-07 1 1 -1.39071e-07 86.4609 30.7153)" fill="#6D91E9"/>
<rect width="10.2383" height="10.2383" transform="matrix(-1 0 0 1 86.4609 61.4277)" fill="#6D91E9"/>
<rect width="40.9532" height="10.2383" transform="matrix(-1 0 0 1 127.412 71.668)" fill="#6D91E9"/>
<rect width="10.2383" height="40.9532" transform="matrix(-1 0 0 1 76.2188 20.4771)" fill="#6D91E9"/>
</svg>
