<svg width="161" height="298" viewBox="0 0 161 298" fill="none" xmlns="http://www.w3.org/2000/svg">
<rect x="5.94336" y="59.5405" width="148.574" height="178.289" fill="#123077"/>
<rect x="136.688" y="291.317" width="112.916" height="17.8289" transform="rotate(-180 136.688 291.317)" fill="#BD6242"/>
<rect x="154.517" y="273.488" width="148.574" height="5.94298" transform="rotate(-180 154.517 273.488)" fill="#BD6242"/>
<rect x="154.517" y="267.545" width="148.574" height="5.94298" transform="rotate(-180 154.517 267.545)" fill="#BD6242"/>
<rect x="154.517" y="261.602" width="148.574" height="5.94298" transform="rotate(-180 154.517 261.602)" fill="#BD6242"/>
<rect x="142.628" y="285.374" width="5.94298" height="5.94298" transform="rotate(-180 142.628 285.374)" fill="#BD6242"/>
<rect width="5.94287" height="5.94299" transform="matrix(1 0 0 -1 17.8318 285.374)" fill="#BD6242"/>
<rect x="148.577" y="279.437" width="11.886" height="5.94298" transform="rotate(-180 148.577 279.437)" fill="#BD6242"/>
<rect width="11.886" height="5.94298" transform="matrix(1 0 0 -1 11.8826 279.437)" fill="#BD6242"/>
<rect width="5.94298" height="5.94298" transform="matrix(1 0 0 -1 5.94336 279.432)" fill="#F0D5C7"/>
<rect width="5.94298" height="23.7719" transform="matrix(1 0 0 -1 0 273.488)" fill="#F0D5C7"/>
<rect x="154.517" y="279.432" width="5.94298" height="5.94298" transform="rotate(-180 154.517 279.432)" fill="#F0D5C7"/>
<rect x="160.46" y="273.488" width="5.94298" height="23.7719" transform="rotate(-180 160.46 273.488)" fill="#F0D5C7"/>
<rect width="5.94298" height="5.94298" transform="matrix(1 0 0 -1 11.8865 285.374)" fill="#F0D5C7"/>
<rect x="148.574" y="285.374" width="5.94287" height="5.94299" transform="rotate(-180 148.574 285.374)" fill="#F0D5C7"/>
<rect width="5.94298" height="5.94298" transform="matrix(1 0 0 -1 17.8289 291.317)" fill="#F0D5C7"/>
<rect x="142.632" y="291.317" width="5.94298" height="5.94298" transform="rotate(-180 142.632 291.317)" fill="#F0D5C7"/>
<rect width="112.917" height="5.94298" transform="matrix(1 0 0 -1 23.772 297.26)" fill="#F0D5C7"/>
<rect width="148.574" height="5.94298" transform="matrix(1 0 0 -1 5.94336 255.66)" fill="#F0D5C7"/>
<rect x="101.031" y="273.488" width="41.6008" height="5.94298" transform="rotate(-180 101.031 273.488)" fill="#F0D5C7"/>
<rect width="112.916" height="17.8289" transform="matrix(-1 0 0 1 136.688 6.05469)" fill="#BD6242"/>
<rect width="148.574" height="5.94298" transform="matrix(-1 0 0 1 154.517 23.8838)" fill="#BD6242"/>
<rect width="148.574" height="5.94298" transform="matrix(-1 0 0 1 154.517 29.8267)" fill="#BD6242"/>
<rect width="148.574" height="5.94298" transform="matrix(-1 0 0 1 154.517 35.7695)" fill="#BD6242"/>
<rect width="5.94298" height="5.94298" transform="matrix(-1 0 0 1 142.628 11.998)" fill="#BD6242"/>
<rect x="17.8318" y="11.998" width="5.94287" height="5.94296" fill="#BD6242"/>
<rect width="11.886" height="5.94298" transform="matrix(-1 0 0 1 148.577 17.9346)" fill="#BD6242"/>
<rect x="11.8826" y="17.9346" width="11.886" height="5.94298" fill="#BD6242"/>
<rect x="5.94336" y="17.9399" width="5.94298" height="5.94298" fill="#F0D5C7"/>
<rect y="23.8833" width="5.94298" height="23.7719" fill="#F0D5C7"/>
<rect width="5.94298" height="5.94298" transform="matrix(-1 0 0 1 154.517 17.9399)" fill="#F0D5C7"/>
<rect width="5.94298" height="23.7719" transform="matrix(-1 0 0 1 160.46 23.8833)" fill="#F0D5C7"/>
<rect x="11.8865" y="11.9966" width="5.94298" height="5.94298" fill="#F0D5C7"/>
<rect width="5.94287" height="5.94296" transform="matrix(-1 0 0 1 148.574 11.9966)" fill="#F0D5C7"/>
<rect x="17.8289" y="6.05371" width="5.94298" height="5.94298" fill="#F0D5C7"/>
<rect width="5.94298" height="5.94298" transform="matrix(-1 0 0 1 142.632 6.05371)" fill="#F0D5C7"/>
<rect x="23.772" y="0.111328" width="112.917" height="5.94298" fill="#F0D5C7"/>
<rect x="5.94336" y="41.7114" width="148.574" height="5.94298" fill="#F0D5C7"/>
<rect y="53.5977" width="160.46" height="5.94298" fill="#6D91E9"/>
<rect y="237.83" width="160.46" height="5.94298" fill="#6D91E9"/>
<rect x="71.3152" y="83.3125" width="41.6008" height="5.94298" fill="#6D91E9"/>
<rect x="89.145" y="196.229" width="41.6008" height="5.94298" transform="rotate(-180 89.145 196.229)" fill="#6D91E9"/>
<rect x="112.917" y="89.2559" width="5.94298" height="41.6008" fill="#6D91E9"/>
<rect x="47.5437" y="190.286" width="5.94287" height="41.6008" transform="rotate(-180 47.5437 190.286)" fill="#6D91E9"/>
<rect x="65.3726" y="89.2559" width="5.94287" height="5.94299" fill="#6D91E9"/>
<rect x="95.0872" y="190.286" width="5.94298" height="5.94298" transform="rotate(-180 95.0872 190.286)" fill="#6D91E9"/>
<rect x="95.0872" y="118.97" width="5.94298" height="5.94298" fill="#6D91E9"/>
<rect x="65.3726" y="160.571" width="5.94298" height="5.94298" transform="rotate(-180 65.3726 160.571)" fill="#6D91E9"/>
<rect x="89.145" y="124.913" width="5.94287" height="5.94296" fill="#6D91E9"/>
<rect x="71.3152" y="154.628" width="5.94298" height="5.94298" transform="rotate(-180 71.3152 154.628)" fill="#6D91E9"/>
<rect x="83.2017" y="130.856" width="5.94298" height="5.94298" fill="#6D91E9"/>
<rect x="77.2585" y="148.686" width="5.94298" height="5.94298" transform="rotate(-180 77.2585 148.686)" fill="#6D91E9"/>
<rect x="77.2585" y="136.799" width="5.94298" height="5.94298" fill="#6D91E9"/>
<rect x="83.2017" y="142.742" width="5.94298" height="5.94298" transform="rotate(-180 83.2017 142.742)" fill="#6D91E9"/>
<rect x="71.3152" y="95.1992" width="5.94287" height="5.94296" fill="#6D91E9"/>
<rect x="89.145" y="184.343" width="5.94298" height="5.94298" transform="rotate(-180 89.145 184.343)" fill="#6D91E9"/>
<rect x="101.031" y="124.913" width="5.94298" height="5.94298" fill="#6D91E9"/>
<rect x="59.4292" y="154.628" width="5.94298" height="5.94298" transform="rotate(-180 59.4292 154.628)" fill="#6D91E9"/>
<rect x="77.2585" y="101.141" width="5.94298" height="5.94298" fill="#6D91E9"/>
<rect x="83.2017" y="178.4" width="5.94298" height="5.94298" transform="rotate(-180 83.2017 178.4)" fill="#6D91E9"/>
<rect x="71.3152" y="107.084" width="5.94287" height="5.94299" fill="#6D91E9"/>
<rect x="89.145" y="172.457" width="5.94298" height="5.94298" transform="rotate(-180 89.145 172.457)" fill="#6D91E9"/>
<rect x="65.3726" y="113.027" width="5.94287" height="5.94296" fill="#6D91E9"/>
<rect x="95.0872" y="166.514" width="5.94298" height="5.94298" transform="rotate(-180 95.0872 166.514)" fill="#6D91E9"/>
<rect x="59.4292" y="118.97" width="5.94298" height="5.94298" fill="#6D91E9"/>
<rect x="101.031" y="160.571" width="5.94287" height="5.94299" transform="rotate(-180 101.031 160.571)" fill="#6D91E9"/>
<rect x="106.973" y="130.856" width="5.94298" height="5.94298" fill="#6D91E9"/>
<rect x="53.4863" y="148.686" width="5.94298" height="5.94298" transform="rotate(-180 53.4863 148.686)" fill="#6D91E9"/>
<rect y="59.5405" width="5.94298" height="178.289" fill="#6D91E9"/>
<rect x="154.517" y="59.5405" width="5.94298" height="178.289" fill="#6D91E9"/>
</svg>
