<svg width="232" height="219" viewBox="0 0 232 219" fill="none" xmlns="http://www.w3.org/2000/svg">
<rect width="44.0009" height="11.0002" transform="matrix(-1 0 0 1 132 11)" fill="#123077"/>
<rect width="66.0014" height="11.0002" transform="matrix(-1 0 0 1 143 22.0005)" fill="#123077"/>
<rect width="66.0014" height="11.0002" transform="matrix(-1 0 0 1 143 33.0005)" fill="#123077"/>
<rect width="66.0014" height="11.0002" transform="matrix(-1 0 0 1 143 44.001)" fill="#123077"/>
<rect width="66.0014" height="11.0002" transform="matrix(-1 0 0 1 143 55.001)" fill="#123077"/>
<rect width="55.0012" height="11.0002" transform="matrix(-1 0 0 1 132 66.002)" fill="#123077"/>
<rect x="88.0039" width="44.0001" height="11" fill="#6D91E9"/>
<rect x="132.001" y="11.002" width="11" height="11" fill="#6D91E9"/>
<rect x="132.001" y="65.998" width="11" height="11" fill="#6D91E9"/>
<rect x="143.001" y="22.0005" width="11.0001" height="44.0002" fill="#6D91E9"/>
<rect width="11" height="11" transform="matrix(-1 0 0 1 88.0039 11.002)" fill="#6D91E9"/>
<rect width="22.0001" height="11.0001" transform="matrix(-1 0 0 1 120.997 22.0005)" fill="#6D91E9"/>
<rect width="22.0001" height="11.0001" transform="matrix(1.39071e-07 1 1 -1.39071e-07 88.0039 33.0005)" fill="#6D91E9"/>
<rect width="11" height="11" transform="matrix(-1 0 0 1 88.0039 65.998)" fill="#6D91E9"/>
<rect width="44.0001" height="11" transform="matrix(-1 0 0 1 132.001 77)" fill="#6D91E9"/>
<rect width="11.0001" height="44.0002" transform="matrix(-1 0 0 1 76.9995 22.0005)" fill="#6D91E9"/>
<path d="M14 69H205.022V123H218V151.091L205.022 150.966V204.875L14 205V69Z" fill="#BD6242"/>
<rect x="14" y="55" width="191" height="14" fill="#E5B7A0"/>
<rect x="14" y="205" width="191" height="14" fill="#E5B7A0"/>
<rect y="69" width="14" height="136" fill="#E5B7A0"/>
<rect x="205" y="69" width="13" height="40" fill="#E5B7A0"/>
<rect x="164" y="151" width="54" height="13" fill="#E5B7A0"/>
<rect x="164" y="109" width="54" height="14" fill="#E5B7A0"/>
<rect x="150" y="123" width="14" height="28" fill="#E5B7A0"/>
<rect x="205" y="164" width="13" height="41" fill="#E5B7A0"/>
<rect x="218" y="110" width="14" height="54" fill="#E5B7A0"/>
</svg>
