<?xml version="1.0" encoding="utf-8"?>
<!-- Generator: Adobe Illustrator 23.0.3, SVG Export Plug-In . SVG Version: 6.00 Build 0)  -->
<svg version="1.1" id="Layer_1" xmlns="http://www.w3.org/2000/svg" xmlns:xlink="http://www.w3.org/1999/xlink" x="0px" y="0px"
	 viewBox="0 0 512 512" style="enable-background:new 0 0 512 512;" xml:space="preserve">
<style type="text/css">
	.st0{fill:#FFFFFF;}
	.st1{fill:url(#SVGID_1_);}
	.st2{fill:url(#SVGID_2_);}
	.st3{fill:url(#SVGID_3_);}
</style>
<path class="st0" d="M256,0C114.6,0,0,114.6,0,256s114.6,256,256,256s256-114.6,256-256S397.4,0,256,0z"/>
<linearGradient id="SVGID_1_" gradientUnits="userSpaceOnUse" x1="119.3" y1="293.2" x2="181.6" y2="293.2">
	<stop  offset="0" style="stop-color:#0077B5"/>
	<stop  offset="1" style="stop-color:#0066B2"/>
</linearGradient>
<rect x="119.3" y="199.4" class="st1" width="62.3" height="187.6"/>
<linearGradient id="SVGID_2_" gradientUnits="userSpaceOnUse" x1="115.5" y1="141.4" x2="185.7" y2="141.4">
	<stop  offset="0" style="stop-color:#0077B5"/>
	<stop  offset="1" style="stop-color:#0066B2"/>
</linearGradient>
<path class="st2" d="M150.4,173.8H150c-20.9,0-34.5-14.4-34.5-32.4c0-18.4,13.9-32.4,35.3-32.4s34.5,14,34.9,32.4
	C185.7,159.4,172.2,173.8,150.4,173.8z"/>
<linearGradient id="SVGID_3_" gradientUnits="userSpaceOnUse" x1="216.1" y1="220.89" x2="406.4" y2="220.89" gradientTransform="matrix(1 0 0 -1 0 511.89)">
	<stop  offset="0" style="stop-color:#0077B5"/>
	<stop  offset="1" style="stop-color:#0066B2"/>
</linearGradient>
<path class="st3" d="M406.4,387h-62.3V286.7c0-25.2-9-42.4-31.6-42.4c-17.2,0-27.5,11.6-32,22.8c-1.6,4-2.1,9.6-2.1,15.2V387h-62.3
	c0,0,0.8-170,0-187.6h62.3V226c8.3-12.8,23.1-31,56.2-31c41,0,71.8,26.8,71.8,84.4L406.4,387L406.4,387z"/>
</svg>
