<?xml version="1.0" encoding="utf-8"?>
<!-- Generator: Adobe Illustrator 23.0.3, SVG Export Plug-In . SVG Version: 6.00 Build 0)  -->
<svg version="1.1" id="Layer_1" xmlns="http://www.w3.org/2000/svg" xmlns:xlink="http://www.w3.org/1999/xlink" x="0px" y="0px"
	 viewBox="0 0 512 512" style="enable-background:new 0 0 512 512;" xml:space="preserve">
<style type="text/css">
	.st0{fill:#FFFFFF;}
	.st1{fill:#1CB7EB;}
</style>
<g>
	<circle class="st0" cx="256" cy="256" r="256"/>
	<g>
		<g>
			<path class="st1" d="M392.5,164.3c-9.6,5.3-21.3,8.5-32,9.6c11.7-7.5,20.3-19.2,24.5-33.1c-10.7,6.4-22.4,11.7-36.3,14.9
				c-10.7-11.7-24.5-19.2-40.5-19.2c-30.9,0-56.5,26.7-56.5,60.8c0,4.3,0,9.6,1.1,13.9c-46.9-2.1-88.5-26.7-116.3-62.9
				c-5.3,8.5-7.5,19.2-7.5,30.9c0,21.3,9.6,39.5,24.5,50.1c-9.6,0-18.1-3.2-25.6-7.5v1.1c0,28.8,19.2,53.3,44.8,59.7
				c-4.3,1.1-9.6,2.1-14.9,2.1c-3.2,0-7.5,0-10.7-1.1c7.5,24.5,27.7,41.6,52.3,41.6c-19.2,16-43.7,25.6-69.3,25.6
				c-4.3,0-8.5,0-13.9-1.1c24.5,17.1,54.4,27.7,86.4,27.7c103.5,0,160-91.7,160-171.7c0-2.1,0-5.3,0-7.5
				C375.5,187.7,385.1,177.1,392.5,164.3z"/>
		</g>
	</g>
</g>
</svg>
