<svg width="72" height="72" xmlns="http://www.w3.org/2000/svg"><g stroke-width="2" fill="none" fill-rule="evenodd" stroke-linecap="round" stroke-linejoin="round"><path d="M71 71V56.529c0-1.71-1.779-3.218-4.369-3.701l-21.5-4.007V44H26.87v4.821L5.369 52.828C2.779 53.311 1 54.818 1 56.529V71" fill="#FBE3E6" stroke="#233659"/><g stroke="#233659"><path d="M49.696 22.5v13.104a10 10 0 0 1-4.418 8.297l-2.182 1.467a10 10 0 0 1-5.582 1.703h-3.028a10 10 0 0 1-5.582-1.703l-2.182-1.467a10 10 0 0 1-4.418-8.297V22.5c0-7.634 6.131-13.821 13.696-13.821 7.565 0 13.696 6.187 13.696 13.821z" fill="#FBE3E6"/><path d="M34.478 24.036v9.214h4.565"/></g><path stroke="#F22F46" d="M16.217 31.714v9.215h16.74"/><path d="M20.783 17.893h1.521V33.25h-1.521c-4.203 0-7.61-3.437-7.61-7.679 0-4.241 3.407-7.678 7.61-7.678zM51.217 17.893h-1.521V33.25h1.521c4.203 0 7.61-3.437 7.61-7.679 0-4.241-3.407-7.678-7.61-7.678z" stroke="#233659"/><path d="M22.304 20.964v-6.143C22.304 7.187 28.435 1 36 1c7.565 0 13.696 6.187 13.696 13.821v6.143" stroke="#233659"/></g></svg>