<?xml version="1.0" encoding="utf-8"?>
<!-- Generator: Adobe Illustrator 24.1.2, SVG Export Plug-In . SVG Version: 6.00 Build 0)  -->
<svg version="1.1" id="Layer_1" xmlns="http://www.w3.org/2000/svg" xmlns:xlink="http://www.w3.org/1999/xlink" x="0px" y="0px"
	 viewBox="0 0 71 71" style="enable-background:new 0 0 71 71;" xml:space="preserve">
<style type="text/css">
	
		.st0{fill-rule:evenodd;clip-rule:evenodd;fill:#FBE3E6;stroke:#233659;stroke-width:2;stroke-linecap:round;stroke-linejoin:round;}
	.st1{fill:none;stroke:#233659;stroke-width:2;stroke-linecap:round;stroke-linejoin:round;}
	.st2{fill:#F22F46;}
</style>
<g>
	<g>
		<path class="st0" d="M6.5,55.7h13.7l17.2-8.4c1.7-0.8,3.8-0.2,4.8,1.5c1.1,1.9,0.4,4.3-1.5,5.3l-6.5,3.3v1.3l8.9,1.3l11.4-2.5
			l4.6-3.9c2.6-2.2,6.3-2.7,9.4-1.2L58.2,62.5l-12.7,5.1l-10.1,1.3H2.5"/>
	</g>
	<g>
		<path class="st0" d="M64.5,16.3H50.8l-17.2,8.4c-1.7,0.8-3.8,0.2-4.8-1.5c-1.1-1.9-0.4-4.3,1.5-5.3l6.5-3.3v-1.3L27.9,12
			l-11.4,2.5l-4.6,3.9c-2.6,2.2-6.3,2.7-9.4,1.2L12.8,9.5l12.7-5.1l10.1-1.3h32.9"/>
	</g>
	<circle class="st1" cx="37" cy="35.5" r="8.8"/>
	<g>
		<path class="st2" d="M39.8,33c-0.1-0.1-0.2-0.1-0.3-0.2c-0.2-0.1-0.3-0.2-0.6-0.3c-0.2-0.1-0.5-0.2-0.7-0.3
			c-0.3-0.1-0.5-0.1-0.8-0.2v2.5l0.4,0.1c0.5,0.1,1,0.3,1.4,0.4c0.4,0.2,0.8,0.3,1,0.6c0.3,0.2,0.5,0.5,0.7,0.8s0.2,0.7,0.2,1.2
			s-0.1,1-0.3,1.4s-0.4,0.7-0.8,0.9c-0.3,0.2-0.7,0.4-1.1,0.5c-0.4,0.1-0.9,0.2-1.3,0.2v1.6h-0.9v-1.6c-0.7,0-1.3-0.2-2-0.4
			c-0.6-0.2-1.2-0.5-1.7-0.9l0.9-1.7c0.1,0.1,0.2,0.2,0.4,0.3s0.4,0.2,0.7,0.4c0.3,0.1,0.6,0.2,0.9,0.3c0.3,0.1,0.7,0.2,1,0.2v-2.5
			c-0.1,0-0.2,0-0.3-0.1c-0.1,0-0.2-0.1-0.3-0.1c-0.5-0.1-0.9-0.3-1.3-0.4c-0.4-0.2-0.7-0.3-0.9-0.6c-0.2-0.2-0.4-0.5-0.5-0.7
			c-0.1-0.3-0.2-0.6-0.2-1c0-0.5,0.1-0.9,0.3-1.3c0.2-0.4,0.4-0.7,0.7-1s0.6-0.5,1-0.6s0.8-0.2,1.3-0.3v-1.5h0.9v1.5
			c0.6,0,1.2,0.2,1.8,0.4c0.5,0.2,1,0.5,1.4,0.7L39.8,33z M35.4,33.1c0,0.3,0.1,0.6,0.3,0.7c0.2,0.2,0.6,0.3,1,0.5V32
			C35.9,32,35.4,32.4,35.4,33.1z M38.9,37.8c0-0.3-0.1-0.6-0.4-0.8c-0.3-0.2-0.6-0.4-1.1-0.5v2.3C38.4,38.8,38.9,38.5,38.9,37.8z"/>
	</g>
	<rect x="36.4" y="28.8" class="st2" width="1.1" height="13.4"/>
</g>
</svg>
