<?xml version="1.0" encoding="utf-8"?>
<!-- Generator: Adobe Illustrator 24.1.2, SVG Export Plug-In . SVG Version: 6.00 Build 0)  -->
<svg version="1.1" id="Layer_1" xmlns="http://www.w3.org/2000/svg" xmlns:xlink="http://www.w3.org/1999/xlink" x="0px" y="0px"
	 viewBox="0 0 72 72" style="enable-background:new 0 0 72 72;" xml:space="preserve">
<style type="text/css">
	.st0{fill:#FFFFFF;stroke:#233659;stroke-width:1.5;}
	.st1{fill:none;stroke:#233659;stroke-width:1.5;}
	.st2{fill:#FBE3E6;stroke:#233659;stroke-width:1.5;stroke-linecap:round;stroke-linejoin:round;}
	.st3{fill:#F22F46;}
</style>
<g>
	<circle class="st0" cx="34.8" cy="12.9" r="11.6"/>
	<line class="st0" x1="34.8" y1="24.5" x2="34.8" y2="65.9"/>
	<path class="st1" d="M62.4,57.5V47.3c0-3.8-3.1-6.8-6.8-6.8H41.6c-3.8,0-6.8-3.1-6.8-6.8v-9.1"/>
	<path class="st1" d="M7.2,57.5V47.3c0-3.8,3.1-6.8,6.8-6.8H28c3.8,0,6.8-3.1,6.8-6.8v-9.1"/>
	<circle class="st2" cx="34.8" cy="63.4" r="7.3"/>
	<g>
		<path class="st3" d="M38.3,9.3c-0.1-0.1-0.2-0.2-0.4-0.3c-0.2-0.1-0.5-0.3-0.7-0.4c-0.3-0.1-0.6-0.3-0.9-0.4
			c-0.3-0.1-0.7-0.2-1.1-0.2v3.3l0.5,0.1c0.7,0.2,1.3,0.4,1.8,0.6c0.5,0.2,1,0.5,1.4,0.8c0.4,0.3,0.7,0.7,0.9,1.1
			c0.2,0.4,0.3,0.9,0.3,1.6c0,0.7-0.1,1.3-0.4,1.8c-0.2,0.5-0.6,0.9-1,1.2c-0.4,0.3-0.9,0.6-1.5,0.7c-0.6,0.2-1.2,0.2-1.8,0.3v2.1
			h-1.1v-2.1c-0.9-0.1-1.7-0.2-2.6-0.5c-0.8-0.3-1.6-0.7-2.3-1.2l1.2-2.3c0.1,0.1,0.3,0.2,0.5,0.4c0.2,0.2,0.5,0.3,0.9,0.5
			c0.3,0.2,0.7,0.3,1.2,0.4c0.4,0.1,0.9,0.2,1.3,0.3v-3.3c-0.1,0-0.2-0.1-0.3-0.1c-0.1,0-0.2-0.1-0.3-0.1C33,13.4,32.5,13.2,32,13
			c-0.5-0.2-0.9-0.5-1.2-0.7c-0.3-0.3-0.6-0.6-0.7-1c-0.2-0.4-0.2-0.8-0.2-1.3c0-0.6,0.1-1.2,0.3-1.7c0.2-0.5,0.5-0.9,0.9-1.3
			c0.4-0.4,0.8-0.6,1.4-0.8c0.5-0.2,1.1-0.3,1.7-0.4V3.8h1.1v1.9c0.8,0.1,1.6,0.2,2.3,0.5c0.7,0.3,1.3,0.6,1.8,1L38.3,9.3z
			 M32.6,9.5c0,0.4,0.1,0.8,0.4,1c0.3,0.2,0.7,0.4,1.4,0.6V8C33.2,8.1,32.6,8.6,32.6,9.5z M37.2,15.7c0-0.4-0.2-0.8-0.5-1
			c-0.4-0.2-0.8-0.5-1.5-0.7v3.1C36.5,17,37.2,16.6,37.2,15.7z"/>
	</g>
	<rect x="1.7" y="54.3" class="st2" width="11" height="11"/>
	<polygon class="st2" points="62.4,54.3 62.4,54.3 54.4,65.3 70.3,65.3 	"/>
	<rect x="34" y="3.8" class="st3" width="1.5" height="17.7"/>
</g>
</svg>
