<?xml version="1.0" encoding="utf-8"?>
<!-- Generator: Adobe Illustrator 23.0.3, SVG Export Plug-In . SVG Version: 6.00 Build 0)  -->
<svg version="1.1" id="Layer_1" xmlns="http://www.w3.org/2000/svg" xmlns:xlink="http://www.w3.org/1999/xlink" x="0px" y="0px"
	 viewBox="0 0 71 71" style="enable-background:new 0 0 71 71;" xml:space="preserve">
<style type="text/css">
	
		.st0{fill-rule:evenodd;clip-rule:evenodd;fill:#FBE3E6;stroke:#233659;stroke-width:2;stroke-linecap:round;stroke-linejoin:round;}
	.st1{fill:none;stroke:#233659;stroke-width:2;stroke-linecap:round;stroke-linejoin:round;}
	
		.st2{fill-rule:evenodd;clip-rule:evenodd;fill:#F9F9F9;stroke:#233659;stroke-width:2;stroke-linecap:round;stroke-linejoin:round;}
	.st3{fill:none;stroke:#F22F46;stroke-width:2;stroke-linecap:round;stroke-linejoin:round;}
</style>
<g>
	<path class="st0" d="M46.6,58.7l2.3-7.7c0.8-2.8,3.7-4.5,6.6-3.8l-1.3,8.9"/>
	<path class="st0" d="M5,55.7h13.7l17.2-8.4c1.7-0.8,3.8-0.2,4.8,1.5c1.1,1.9,0.4,4.3-1.5,5.3l-6.5,3.3v1.3l8.9,1.3l11.4-2.5
		l4.6-3.9c2.6-2.2,6.3-2.7,9.4-1.2L56.7,62.5L44,67.6l-10.1,1.3H1"/>
	<path class="st1" d="M40.9,37.1l-4.8,3.3l-4.8-3.3c-5.9-4.1-9.4-10.8-9.4-18V9.8l0.3,0c5.5-0.7,10.5-3.4,14-7.6
		c3.5,4.2,8.5,6.9,14,7.6l0.3,0v9.3C50.4,26.3,46.8,33,40.9,37.1z"/>
	<path class="st2" d="M30.6,28.4h11v-8.8h-11V28.4z"/>
	<path class="st3" d="M38.4,33.5l-2.3,1.6l-2.3-1.6 M42.7,13.1H46v3.3 M26.2,16.4v-3.3h3.3"/>
	<path class="st1" d="M35,24h2.2 M36.1,13.1c1.8,0,3.3,1.5,3.3,3.3v3.3h-6.6v-3.3C32.8,14.5,34.3,13.1,36.1,13.1
		C36.1,13.1,36.1,13.1,36.1,13.1z M54.6,13.1H70 M54.6,18.5h11 M54.6,24h6.6 M17.5,13.1H2.2 M17.5,18.5h-11 M17.5,24H11"/>
</g>
</svg>
