<?xml version="1.0" encoding="utf-8"?>
<!-- Generator: Adobe Illustrator 24.1.2, SVG Export Plug-In . SVG Version: 6.00 Build 0)  -->
<svg version="1.1" id="Layer_1" xmlns="http://www.w3.org/2000/svg" xmlns:xlink="http://www.w3.org/1999/xlink" x="0px" y="0px"
	 viewBox="0 0 71 71" style="enable-background:new 0 0 71 71;" xml:space="preserve">
<style type="text/css">
	.st0{fill:#F22F46;}
	.st1{fill:none;stroke:#233659;stroke-width:2;stroke-linecap:round;stroke-linejoin:round;}
	.st2{fill:#FBE3E6;stroke:#233659;stroke-width:2;stroke-linecap:round;stroke-linejoin:round;}
</style>
<g>
	<g>
		<path class="st0" d="M24.3,28.6c-0.9,0-1.8-0.2-2.6-0.5c-0.8-0.3-1.5-0.7-2-1.3c-0.6-0.5-1-1.2-1.4-1.9c-0.3-0.7-0.5-1.5-0.5-2.3
			c0-0.8,0.2-1.6,0.5-2.3c0.3-0.7,0.8-1.4,1.4-1.9c0.6-0.5,1.3-0.9,2-1.3c0.8-0.3,1.6-0.5,2.6-0.5c0.9,0,1.7,0.2,2.5,0.5
			c0.8,0.3,1.5,0.7,2.1,1.3c0.6,0.5,1,1.2,1.4,1.9c0.3,0.7,0.5,1.5,0.5,2.3c0,0.8-0.2,1.6-0.5,2.3c-0.3,0.7-0.8,1.4-1.4,1.9
			c-0.6,0.5-1.3,1-2.1,1.3C26,28.5,25.2,28.6,24.3,28.6z M20,43.2l11.1-13l10.2-13.5l2.4,2.1L33,31.6L22.4,45.3L20,43.2z M24.3,26
			c0.4,0,0.8-0.1,1.1-0.3c0.3-0.2,0.6-0.4,0.9-0.7c0.3-0.3,0.5-0.7,0.6-1.1c0.1-0.4,0.2-0.8,0.2-1.3c0-0.9-0.3-1.7-0.8-2.3
			c-0.6-0.6-1.2-1-2-1c-0.4,0-0.8,0.1-1.1,0.3c-0.3,0.2-0.6,0.4-0.9,0.7c-0.3,0.3-0.5,0.6-0.6,1s-0.2,0.8-0.2,1.3
			c0,0.9,0.3,1.7,0.8,2.4C22.9,25.7,23.5,26,24.3,26z M39.5,45.4c-0.9,0-1.8-0.2-2.6-0.5c-0.8-0.3-1.5-0.7-2-1.3
			c-0.6-0.5-1-1.1-1.4-1.9c-0.3-0.7-0.5-1.5-0.5-2.3c0-0.8,0.2-1.6,0.5-2.3c0.3-0.7,0.8-1.4,1.4-1.9c0.6-0.5,1.3-1,2-1.3
			c0.8-0.3,1.6-0.5,2.6-0.5c0.9,0,1.8,0.2,2.6,0.5c0.8,0.3,1.5,0.7,2.1,1.3c0.6,0.5,1,1.2,1.4,1.9c0.3,0.7,0.5,1.5,0.5,2.3
			c0,0.8-0.2,1.6-0.5,2.3c-0.3,0.7-0.8,1.3-1.4,1.9c-0.6,0.5-1.3,0.9-2.1,1.3C41.3,45.3,40.4,45.4,39.5,45.4z M39.5,42.8
			c0.4,0,0.8-0.1,1.1-0.3c0.3-0.2,0.6-0.4,0.9-0.7c0.3-0.3,0.5-0.7,0.6-1c0.1-0.4,0.2-0.8,0.2-1.3c0-0.5-0.1-0.9-0.2-1.3
			c-0.2-0.4-0.4-0.8-0.6-1.1c-0.3-0.3-0.5-0.5-0.9-0.7c-0.3-0.2-0.7-0.3-1.1-0.3c-0.4,0-0.8,0.1-1.1,0.3c-0.3,0.2-0.6,0.4-0.9,0.7
			c-0.3,0.3-0.5,0.7-0.6,1.1c-0.1,0.4-0.2,0.8-0.2,1.3c0,0.9,0.3,1.7,0.8,2.3C38.1,42.5,38.8,42.8,39.5,42.8z"/>
	</g>
	<g>
		<circle class="st1" cx="31.9" cy="31.1" r="26.6"/>
	</g>
	<path class="st2" d="M56.9,40.8c-2.5,0-4.8,1.1-6.4,2.8c-1.6-1.7-3.9-2.8-6.4-2.8c-4.9,0-8.8,4.1-8.8,9.1c0,7,15.3,16.7,15.3,16.7
		s15.3-9.7,15.3-16.7C65.7,44.9,61.7,40.8,56.9,40.8z"/>
</g>
</svg>
