<?xml version="1.0" encoding="utf-8"?>
<!-- Generator: Adobe Illustrator 24.1.2, SVG Export Plug-In . SVG Version: 6.00 Build 0)  -->
<svg version="1.1" id="Layer_1" xmlns="http://www.w3.org/2000/svg" xmlns:xlink="http://www.w3.org/1999/xlink" x="0px" y="0px"
	 viewBox="0 0 71 71" style="enable-background:new 0 0 71 71;" xml:space="preserve">
<style type="text/css">
	.st0{fill:none;stroke:#233659;stroke-width:1.5;stroke-linecap:round;stroke-linejoin:round;}
	.st1{fill:#FFFFFF;stroke:#233659;stroke-width:2;stroke-linecap:round;stroke-linejoin:round;}
	.st2{fill:#F22F46;}
	.st3{fill:#FBE3E6;stroke:#233659;stroke-width:1.5;stroke-linecap:round;stroke-linejoin:round;}
</style>
<g>
	<line class="st0" x1="35.6" y1="42.5" x2="35.6" y2="11.4"/>
	<line class="st0" x1="35.5" y1="42.2" x2="62.4" y2="57.8"/>
	<line class="st0" x1="8.6" y1="57.8" x2="35.6" y2="42.2"/>
	<circle class="st1" cx="35.4" cy="40.5" r="15.2"/>
	<g>
		<g>
			<path class="st2" d="M40.4,36c-0.2-0.2-0.4-0.2-0.5-0.4c-0.4-0.2-0.5-0.4-1.1-0.5c-0.4-0.2-0.9-0.4-1.2-0.5
				c-0.5-0.2-0.9-0.2-1.4-0.4v4.5l0.7,0.2c0.9,0.2,1.8,0.5,2.5,0.7c0.7,0.4,1.4,0.5,1.8,1.1c0.5,0.4,0.9,0.9,1.2,1.4
				c0.4,0.5,0.4,1.2,0.4,2.1c0,0.9-0.2,1.8-0.5,2.5c-0.4,0.7-0.7,1.2-1.4,1.6c-0.5,0.4-1.2,0.7-2,0.9c-0.7,0.2-1.6,0.4-2.3,0.4v2.9
				h-1.6v-2.9c-1.2,0-2.3-0.4-3.6-0.7c-1.1-0.4-2.1-0.9-3-1.6l1.6-3c0.2,0.2,0.4,0.4,0.7,0.5s0.7,0.4,1.2,0.7
				c0.5,0.2,1.1,0.4,1.6,0.5c0.5,0.2,1.2,0.4,1.8,0.4v-4.5c-0.2,0-0.4,0-0.5-0.2c-0.2,0-0.4-0.2-0.5-0.2c-0.9-0.2-1.6-0.5-2.3-0.7
				c-0.7-0.4-1.2-0.5-1.6-1.1c-0.4-0.4-0.7-0.9-0.9-1.2c-0.2-0.5-0.4-1.1-0.4-1.8c0-0.9,0.2-1.6,0.5-2.3c0.4-0.7,0.7-1.2,1.2-1.8
				c0.5-0.5,1.1-0.9,1.8-1.1c0.7-0.2,1.4-0.4,2.3-0.5v-2.7h1.6V31c1.1,0,2.1,0.4,3.2,0.7c0.9,0.4,1.8,0.9,2.5,1.2L40.4,36z
				 M32.6,36.2c0,0.5,0.2,1.1,0.5,1.2c0.4,0.4,1.1,0.5,1.8,0.9v-4.1C33.5,34.2,32.6,34.9,32.6,36.2z M38.8,44.5
				c0-0.5-0.2-1.1-0.7-1.4c-0.5-0.4-1.1-0.7-2-0.9v4.1C37.9,46.3,38.8,45.8,38.8,44.5z"/>
		</g>
		<rect x="34.6" y="28.3" class="st2" width="2" height="24.1"/>
	</g>
	<circle class="st3" cx="62" cy="57.6" r="7.4"/>
	<rect x="3.5" y="52" class="st3" width="11" height="11"/>
	<polygon class="st3" points="35.5,7.9 35.5,7.9 27.6,19 43.4,19 	"/>
</g>
</svg>
