<?xml version="1.0" encoding="utf-8"?>
<!-- Generator: Adobe Illustrator 23.0.3, SVG Export Plug-In . SVG Version: 6.00 Build 0)  -->
<svg version="1.1" id="Layer_1" xmlns="http://www.w3.org/2000/svg" xmlns:xlink="http://www.w3.org/1999/xlink" x="0px" y="0px"
	 viewBox="0 0 92 92" style="enable-background:new 0 0 92 92;" xml:space="preserve">
<style type="text/css">
	
		.st0{fill-rule:evenodd;clip-rule:evenodd;fill:#FBE3E6;stroke:#233659;stroke-width:2;stroke-linecap:round;stroke-linejoin:round;}
	
		.st1{fill-rule:evenodd;clip-rule:evenodd;fill:#FFFFFF;stroke:#233659;stroke-width:2;stroke-linecap:round;stroke-linejoin:round;}
	.st2{fill:none;stroke:#F22F46;stroke-width:2;stroke-linecap:round;stroke-linejoin:round;stroke-dasharray:1;}
	.st3{fill-rule:evenodd;clip-rule:evenodd;fill:#F22F46;}
</style>
<g>
	<g transform="translate(10 1)">
		<circle class="st0" cx="35" cy="45" r="35"/>
		<path class="st1" d="M55.3,16.5c-0.8-0.7-1.8-0.4-2.9,0.7c-1.9,1.9-4.4,3-7.1,3h-2.6c-1.7,0-3.4,0.4-4.9,1.3l-0.3,0.2
			c-1.6,0.9-2.8,2.4-3.2,4.2l-1.7,6.7c-0.3,1.1-0.9,2.1-1.8,2.9c-0.9,0.7-1.4,1.8-1.4,2.9v0.5c0,1.5,0.3,3,1,4.3l0.7,1.4
			c1.1,2.2,3,3.8,5.3,4.4l2.9,0.8c0.9,0.3,1.8,0.7,2.6,1.2l9.6,6.1c0.8,0.5,1.7,0.9,2.6,1.2c9.6,2.8,14.9-0.2,15.7-9
			C71,35.3,65.8,24.7,55.3,16.5z M8.7,21.8c1.3-1.4,3.3-1.6,5.9-0.5l2.3,1.7c1.4,1.1,2.3,2.7,2.3,4.5V32c0,1.5-0.4,3-1.1,4.3
			c-0.7,1.3-1.8,2.3-3.2,3l-0.7,0.3c-1.2,0.6-2.2,1.5-2.9,2.6c-0.7,1.1-1.1,2.4-1.1,3.7v0.8c0,1.8,0.9,3.4,2.3,4.4l2.6,1.8
			c1.2,0.8,2.1,1.9,2.6,3.2l0,0.1c0.5,1.2,0.6,2.6,0.2,3.9c-0.4,1.3-1.2,2.3-2.4,3c-6.5,3.4-8.1,3.3-9.2,2
			C-0.8,56.2-4.2,36.4,8.7,21.8z M18.4,75.8c-1.2-0.7,0.4-1.7,4.9-3.2c1-0.3,2-0.5,3.1-0.5h4.4c1.3,0,2.7-0.3,3.9-0.8l3.2-1.4
			c2.6-1.1,5.6-1.1,8.2,0.2c6,2.8,7.3,5,3.9,6.6C38.4,81.9,27.4,80.5,18.4,75.8z"/>
	</g>
	<path class="st2" d="M6.4,43c-5.2,3.7-6.6,7.4-4.3,11c3.6,5.4,23.3,6.5,48.9,0.6C76.6,48.7,93.4,37.5,90.7,32
		c-1.8-3.6-6.1-5.6-13.1-6"/>
	<g transform="rotate(60 -11.727 48.068)">
		<path class="st3" d="M31.8,7.9l0.1,3c0,0.6-0.4,1-1,1l-2.6,0c-0.6,0-1-0.4-1-1l-0.1-3c0-0.6,0.4-1,1-1l2.6,0
			C31.4,6.9,31.8,7.4,31.8,7.9z"/>
		<path class="st3" d="M16.2,5l8.4,0c0.6,0,1,0.4,1,1l0,7.1c0,0.6-0.4,1-1,1l-8.4,0c-0.6,0-1-0.4-1-1l0-7.1C15.2,5.4,15.7,5,16.2,5z
			"/>
		<path class="st3" d="M13.3,7.9l0.1,3c0,0.6-0.4,1-1,1l-2.6,0c-0.6,0-1-0.4-1-1L8.7,8c0-0.6,0.4-1,1-1l2.6,0
			C12.8,6.9,13.3,7.4,13.3,7.9z"/>
	</g>
</g>
</svg>
