<?xml version="1.0" encoding="utf-8"?>
<!-- Generator: Adobe Illustrator 23.0.3, SVG Export Plug-In . SVG Version: 6.00 Build 0)  -->
<svg version="1.1" id="Layer_1" xmlns="http://www.w3.org/2000/svg" xmlns:xlink="http://www.w3.org/1999/xlink" x="0px" y="0px"
	 viewBox="0 0 72 72" style="enable-background:new 0 0 72 72;" xml:space="preserve">
<style type="text/css">
	
		.st0{fill-rule:evenodd;clip-rule:evenodd;fill:#FBE3E6;stroke:#233659;stroke-width:2;stroke-linecap:round;stroke-linejoin:round;}
	.st1{fill:none;stroke:#233659;stroke-width:2;stroke-linecap:round;stroke-linejoin:round;}
	.st2{fill:none;stroke:#F22F46;stroke-width:2;stroke-linecap:round;stroke-linejoin:round;}
	
		.st3{fill-rule:evenodd;clip-rule:evenodd;fill:#FFFFFF;stroke:#233659;stroke-width:2;stroke-linecap:round;stroke-linejoin:round;}
</style>
<g>
	<path class="st0" d="M6.4,4.3h59.1v10.9c0,9.7-7.8,17.5-17.1,17.5H23.9c-9.7,0-17.5-7.8-17.5-17.5V4.3L6.4,4.3z M54.5,8.7h1.1H10.8
		v6.6c0,6.4,4.6,11.7,10.6,12.9h29c6.1-1.2,10.6-6.5,10.6-12.9V8.7L54.5,8.7L54.5,8.7z M31.6,62.2V38.2h8.8v24.1l3.9,3.3H27.9
		L31.6,62.2z"/>
	<path class="st0" d="M54.5,10.8c0,14.5-8.3,28.4-18.6,28.4c-10.3,0-18.6-13.9-18.6-28.4V2.1h37.2V10.8z"/>
	<path class="st1" d="M18.4,69.9h35"/>
	<path class="st0" d="M45.8,65.5H26.1l-2.2,4.4H48L45.8,65.5z"/>
	<path class="st1" d="M24.8,23.1c2,4.3,4.8,7.6,7.9,9.1"/>
	<path class="st2" d="M70.9,43.7H53.4 M70.9,48H57.8 M70.9,52.4h-8.7"/>
	<g>
		<path class="st3" d="M28.4,43.5h13.1c1.2,0,2.2,1,2.2,2.2v13.2c0,1.2-1,2.2-2.2,2.2h-12l-4.4-2.2H1.1"/>
		<path class="st1" d="M43.7,47.9h-5.5 M43.1,52.3h-4.9 M43.7,56.7h-5.5 M1.1,45.7h19.7l6.6-6.6h4.4"/>
	</g>
</g>
</svg>
