<svg width="69" height="69" xmlns="http://www.w3.org/2000/svg"><g stroke-width="2" fill="none" fill-rule="evenodd" stroke-linecap="round" stroke-linejoin="round"><path d="M1 68h67.001" stroke="#233659"/><g stroke="#F22F46"><path d="M10.566 4.469C5.36 10.277 2.188 17.944 2.188 26.344c0 9.493 4.058 18.069 10.533 24.062M59.434 4.469c5.206 5.808 8.378 13.475 8.378 21.875 0 9.493-4.058 18.069-10.533 24.062"/></g><g stroke="#233659"><path d="M24.595 48.7c-8.448-3.934-14.32-12.506-14.32-22.428 0-13.63 11.094-24.725 24.725-24.725 13.63 0 24.726 11.095 24.726 24.725 0 9.922-5.873 18.494-14.321 22.429" fill="#FBE3E6"/><path d="M27.08 40.34c-4.777-2.747-8-7.907-8-13.81 0-8.783 7.138-15.92 15.92-15.92 8.783 0 15.92 7.137 15.92 15.92 0 5.903-3.224 11.063-8.001 13.81"/><path d="M41.563 26.344a6.563 6.563 0 0 1-13.126 0 6.563 6.563 0 0 1 13.125 0z" fill="#FFF"/></g><g stroke="#233659"><path d="M17.5 67.906l13.125-36.094M39.375 31.813L52.5 67.906M20.781 67.906l26.25-14.219M49.219 67.906l-26.25-14.219M22.969 53.688L42.656 42.75M29.531 36.188l13.125 6.562M47.031 53.688L27.344 42.75M40.469 36.188L27.344 42.75"/></g></g></svg>